<svg xmlns="http://www.w3.org/2000/svg" width="24" height="21" viewBox="0 0 24 21">
  <path id="Tracé_196" data-name="Tracé 196" d="M15.187-18H9.047a.686.686,0,0,0-.422.141.93.93,0,0,0-.281.328L7.406-15H2.25a.73.73,0,0,0-.539.211.73.73,0,0,0-.211.539V-.75a.73.73,0,0,0,.211.539A.73.73,0,0,0,2.25,0h19.5a.73.73,0,0,0,.539-.211A.73.73,0,0,0,22.5-.75v-13.5a.73.73,0,0,0-.211-.539A.73.73,0,0,0,21.75-15H16.594l-1.031-2.766A.365.365,0,0,0,15.187-18Zm0-1.5a1.833,1.833,0,0,1,1.078.328,2,2,0,0,1,.7.891l.656,1.781H21.75a2.17,2.17,0,0,1,1.594.656A2.17,2.17,0,0,1,24-14.25V-.75A2.17,2.17,0,0,1,23.344.844,2.17,2.17,0,0,1,21.75,1.5H2.25A2.17,2.17,0,0,1,.656.844,2.17,2.17,0,0,1,0-.75v-13.5a2.17,2.17,0,0,1,.656-1.594A2.17,2.17,0,0,1,2.25-16.5H6.375l.562-1.547A2.443,2.443,0,0,1,7.781-19.1a2.137,2.137,0,0,1,1.266-.4ZM12-1.875a5.538,5.538,0,0,1-2.836-.75A5.549,5.549,0,0,1,7.125-4.664,5.538,5.538,0,0,1,6.375-7.5a5.538,5.538,0,0,1,.75-2.836,5.549,5.549,0,0,1,2.039-2.039A5.538,5.538,0,0,1,12-13.125a5.538,5.538,0,0,1,2.836.75,5.549,5.549,0,0,1,2.039,2.039,5.538,5.538,0,0,1,.75,2.836,5.538,5.538,0,0,1-.75,2.836,5.549,5.549,0,0,1-2.039,2.039A5.538,5.538,0,0,1,12-1.875Zm0-9.75a3.968,3.968,0,0,0-2.906,1.219A3.968,3.968,0,0,0,7.875-7.5,3.968,3.968,0,0,0,9.094-4.594,3.968,3.968,0,0,0,12-3.375a3.968,3.968,0,0,0,2.906-1.219A3.968,3.968,0,0,0,16.125-7.5a3.968,3.968,0,0,0-1.219-2.906A3.968,3.968,0,0,0,12-11.625Z" transform="translate(0 19.5)" fill="#8e8484"/>
</svg>