<svg xmlns="http://www.w3.org/2000/svg" width="21.313" height="21.312" viewBox="0 0 21.313 21.312">
  <path id="Tracé_192" data-name="Tracé 192" d="M16.5-8.937a.5.5,0,0,0-.15-.365.5.5,0,0,0-.365-.15H12.2v-3.781a.5.5,0,0,0-.15-.365.5.5,0,0,0-.365-.15H10.312a.5.5,0,0,0-.365.15.5.5,0,0,0-.15.365v3.781H6.016a.5.5,0,0,0-.365.15.5.5,0,0,0-.15.365v1.375a.5.5,0,0,0,.15.365.5.5,0,0,0,.365.15H9.8v3.781a.5.5,0,0,0,.15.365.5.5,0,0,0,.365.15h1.375a.5.5,0,0,0,.365-.15.5.5,0,0,0,.15-.365V-7.047h3.781a.5.5,0,0,0,.365-.15.5.5,0,0,0,.15-.365Zm5.156.687a10.33,10.33,0,0,0-1.439-5.328,10.768,10.768,0,0,0-3.889-3.889A10.33,10.33,0,0,0,11-18.906a10.33,10.33,0,0,0-5.328,1.439,10.768,10.768,0,0,0-3.889,3.889A10.33,10.33,0,0,0,.344-8.25,10.33,10.33,0,0,0,1.783-2.922,10.768,10.768,0,0,0,5.672.967,10.33,10.33,0,0,0,11,2.406,10.33,10.33,0,0,0,16.328.967a10.768,10.768,0,0,0,3.889-3.889A10.33,10.33,0,0,0,21.656-8.25Zm-2.062,0a8.339,8.339,0,0,1-1.16,4.3A8.666,8.666,0,0,1,15.3-.816,8.339,8.339,0,0,1,11,.344,8.339,8.339,0,0,1,6.7-.816,8.666,8.666,0,0,1,3.566-3.953a8.339,8.339,0,0,1-1.16-4.3,8.339,8.339,0,0,1,1.16-4.3A8.666,8.666,0,0,1,6.7-15.684a8.339,8.339,0,0,1,4.3-1.16,8.339,8.339,0,0,1,4.3,1.16,8.666,8.666,0,0,1,3.137,3.137A8.339,8.339,0,0,1,19.594-8.25Z" transform="translate(-0.344 18.906)" fill="#456d27"/>
</svg>