<svg xmlns="http://www.w3.org/2000/svg" width="14" height="16" viewBox="0 0 14 16">
  <path id="Tracé_187" data-name="Tracé 187" d="M7-1.125a.848.848,0,0,0,.625-.25A.848.848,0,0,0,7.875-2V-4a.848.848,0,0,0-.25-.625A.848.848,0,0,0,7-4.875a.848.848,0,0,0-.625.25A.848.848,0,0,0,6.125-4v2a.848.848,0,0,0,.25.625A.848.848,0,0,0,7-1.125ZM14-6.5a1.447,1.447,0,0,0-.437-1.062A1.447,1.447,0,0,0,12.5-8h-1V-9.469a4.426,4.426,0,0,0-.609-2.266A4.548,4.548,0,0,0,9.25-13.391,4.343,4.343,0,0,0,7-14a4.343,4.343,0,0,0-2.25.609A4.586,4.586,0,0,0,3.109-11.75,4.343,4.343,0,0,0,2.5-9.5V-8h-1a1.447,1.447,0,0,0-1.062.437A1.447,1.447,0,0,0,0-6.5v7A1.447,1.447,0,0,0,.437,1.562,1.447,1.447,0,0,0,1.5,2h11a1.447,1.447,0,0,0,1.062-.437A1.447,1.447,0,0,0,14,.5ZM4-8V-9.5a2.893,2.893,0,0,1,.875-2.125A2.893,2.893,0,0,1,7-12.5a2.893,2.893,0,0,1,2.125.875A2.893,2.893,0,0,1,10-9.5V-8Zm8.5,1.5v7H1.5v-7Z" transform="translate(0 14)" fill="#fff"/>
</svg>