<svg xmlns="http://www.w3.org/2000/svg" width="15.75" height="18" viewBox="0 0 15.75 18">
  <path id="Tracé_173" data-name="Tracé 173" d="M5.2-5.625a.407.407,0,0,0,.3-.123.407.407,0,0,0,.123-.3V-7.453a.407.407,0,0,0-.123-.3.407.407,0,0,0-.3-.123H3.8a.407.407,0,0,0-.3.123.407.407,0,0,0-.123.3v1.406a.407.407,0,0,0,.123.3.407.407,0,0,0,.3.123ZM9-7.453a.407.407,0,0,0-.123-.3.407.407,0,0,0-.3-.123H7.172a.407.407,0,0,0-.3.123.407.407,0,0,0-.123.3v1.406a.407.407,0,0,0,.123.3.407.407,0,0,0,.3.123H8.578a.407.407,0,0,0,.3-.123A.407.407,0,0,0,9-6.047Zm3.375,0a.407.407,0,0,0-.123-.3.407.407,0,0,0-.3-.123H10.547a.407.407,0,0,0-.3.123.407.407,0,0,0-.123.3v1.406a.407.407,0,0,0,.123.3.407.407,0,0,0,.3.123h1.406a.407.407,0,0,0,.3-.123.407.407,0,0,0,.123-.3ZM9-4.078a.407.407,0,0,0-.123-.3.407.407,0,0,0-.3-.123H7.172a.407.407,0,0,0-.3.123.407.407,0,0,0-.123.3v1.406a.407.407,0,0,0,.123.3.407.407,0,0,0,.3.123H8.578a.407.407,0,0,0,.3-.123A.407.407,0,0,0,9-2.672Zm-3.375,0a.407.407,0,0,0-.123-.3A.407.407,0,0,0,5.2-4.5H3.8a.407.407,0,0,0-.3.123.407.407,0,0,0-.123.3v1.406a.407.407,0,0,0,.123.3.407.407,0,0,0,.3.123H5.2a.407.407,0,0,0,.3-.123.407.407,0,0,0,.123-.3Zm6.75,0a.407.407,0,0,0-.123-.3.407.407,0,0,0-.3-.123H10.547a.407.407,0,0,0-.3.123.407.407,0,0,0-.123.3v1.406a.407.407,0,0,0,.123.3.407.407,0,0,0,.3.123h1.406a.407.407,0,0,0,.3-.123.407.407,0,0,0,.123-.3Zm3.375-7.734a1.627,1.627,0,0,0-.492-1.2,1.627,1.627,0,0,0-1.2-.492H12.375v-1.828a.407.407,0,0,0-.123-.3.407.407,0,0,0-.3-.123H10.547a.407.407,0,0,0-.3.123.407.407,0,0,0-.123.3V-13.5h-4.5v-1.828a.407.407,0,0,0-.123-.3.407.407,0,0,0-.3-.123H3.8a.407.407,0,0,0-.3.123.407.407,0,0,0-.123.3V-13.5H1.687a1.627,1.627,0,0,0-1.2.492A1.627,1.627,0,0,0,0-11.812V.562a1.627,1.627,0,0,0,.492,1.2,1.627,1.627,0,0,0,1.2.492H14.062a1.627,1.627,0,0,0,1.2-.492,1.627,1.627,0,0,0,.492-1.2ZM14.062.352a.2.2,0,0,1-.07.141.2.2,0,0,1-.141.07H1.9a.2.2,0,0,1-.141-.07.2.2,0,0,1-.07-.141V-10.125H14.062Z" transform="translate(0 15.75)" fill="#afa3a3"/>
</svg>