<svg xmlns="http://www.w3.org/2000/svg" width="12.5" height="7.275" viewBox="0 0 12.5 7.275">
  <path id="Tracé_195" data-name="Tracé 195" d="M1.221-9.186a.714.714,0,0,1-.146-.439.528.528,0,0,1,.146-.391L6.982-15.68a.464.464,0,0,1,.391-.2.607.607,0,0,1,.439.2l.342.342a.528.528,0,0,1,.146.391.714.714,0,0,1-.146.439L3.174-9.625l4.98,4.883a.607.607,0,0,1,.2.439.464.464,0,0,1-.2.391l-.342.391a.714.714,0,0,1-.439.146.528.528,0,0,1-.391-.146Z" transform="translate(15.875 8.35) rotate(-90)" fill="#302926"/>
</svg>