<svg xmlns="http://www.w3.org/2000/svg" width="19.25" height="22" viewBox="0 0 19.25 22">
  <path id="Tracé_191" data-name="Tracé 191" d="M10.441-9.2a.21.21,0,0,0-.15-.043.21.21,0,0,0-.15.043L5.2-4.254,4.984-2.191a.381.381,0,0,0,.107.365.381.381,0,0,0,.365.107L7.52-1.934l4.941-4.941a.21.21,0,0,0,.043-.15.21.21,0,0,0-.043-.15Zm2.492-1.547A.849.849,0,0,0,12.311-11a.849.849,0,0,0-.623.258l-.816.816a.215.215,0,0,0,0,.344l1.977,1.977a.215.215,0,0,0,.344,0l.816-.816a.849.849,0,0,0,.258-.623.849.849,0,0,0-.258-.623Zm6.316-3.7a1.989,1.989,0,0,0-.6-1.461,1.989,1.989,0,0,0-1.461-.6H15.125v-2.234a.5.5,0,0,0-.15-.365.5.5,0,0,0-.365-.15H12.891a.5.5,0,0,0-.365.15.5.5,0,0,0-.15.365V-16.5h-5.5v-2.234a.5.5,0,0,0-.15-.365.5.5,0,0,0-.365-.15H4.641a.5.5,0,0,0-.365.15.5.5,0,0,0-.15.365V-16.5H2.062A1.989,1.989,0,0,0,.6-15.9,1.989,1.989,0,0,0,0-14.437V.687A1.989,1.989,0,0,0,.6,2.148a1.989,1.989,0,0,0,1.461.6H17.187a1.989,1.989,0,0,0,1.461-.6,1.989,1.989,0,0,0,.6-1.461ZM17.187.43A.248.248,0,0,1,17.1.6a.248.248,0,0,1-.172.086H2.32A.248.248,0,0,1,2.148.6.248.248,0,0,1,2.062.43v-12.8H17.187Z" transform="translate(0 19.25)" fill="#8e8484"/>
</svg>