<svg xmlns="http://www.w3.org/2000/svg" width="20.25" height="18" viewBox="0 0 20.25 18">
  <path id="Tracé_193" data-name="Tracé 193" d="M20.109-5.941a.437.437,0,0,1,.141.316.437.437,0,0,1-.141.316l-2.5,2.531a.409.409,0,0,1-.475.105.385.385,0,0,1-.264-.387V-4.781H6.047a.407.407,0,0,1-.3-.123.407.407,0,0,1-.123-.3v-.844a.407.407,0,0,1,.123-.3.407.407,0,0,1,.3-.123h5.766V-9.562H8.156a.814.814,0,0,1-.6-.246.814.814,0,0,1-.246-.6v-3.656H1.687V.562H11.812V-3.094H13.5V.562a1.627,1.627,0,0,1-.492,1.2,1.627,1.627,0,0,1-1.2.492H1.687a1.627,1.627,0,0,1-1.2-.492A1.627,1.627,0,0,1,0,.562V-14.062a1.627,1.627,0,0,1,.492-1.2,1.627,1.627,0,0,1,1.2-.492H8.859a1.627,1.627,0,0,1,1.2.492L13.008-12.3a1.627,1.627,0,0,1,.492,1.2v4.641h3.375V-8.191a.385.385,0,0,1,.264-.387.409.409,0,0,1,.475.105ZM9-11.25h2.672L9-13.922Z" transform="translate(0 15.75)" fill="#456d27"/>
</svg>