<svg xmlns="http://www.w3.org/2000/svg" width="20.344" height="20.344" viewBox="0 0 20.344 20.344">
  <path id="Tracé_190" data-name="Tracé 190" d="M10.5-18.047a9.86,9.86,0,0,1,5.086,1.374A10.278,10.278,0,0,1,19.3-12.961a9.86,9.86,0,0,1,1.374,5.086A9.86,9.86,0,0,1,19.3-2.789,10.278,10.278,0,0,1,15.586.923,9.86,9.86,0,0,1,10.5,2.3,9.86,9.86,0,0,1,5.414.923,10.278,10.278,0,0,1,1.7-2.789,9.86,9.86,0,0,1,.328-7.875,9.86,9.86,0,0,1,1.7-12.961a10.278,10.278,0,0,1,3.712-3.712A9.86,9.86,0,0,1,10.5-18.047ZM10.5.328A7.96,7.96,0,0,0,14.6-.779,8.272,8.272,0,0,0,17.6-3.773a7.96,7.96,0,0,0,1.107-4.1,7.96,7.96,0,0,0-1.107-4.1A8.272,8.272,0,0,0,14.6-14.971a7.96,7.96,0,0,0-4.1-1.107,7.96,7.96,0,0,0-4.1,1.107A8.272,8.272,0,0,0,3.4-11.977,7.96,7.96,0,0,0,2.3-7.875,7.96,7.96,0,0,0,3.4-3.773,8.272,8.272,0,0,0,6.4-.779,7.96,7.96,0,0,0,10.5.328Zm4.389-10.459a2.832,2.832,0,0,1-.656,1.887,5.58,5.58,0,0,1-1.354.984,3.593,3.593,0,0,0-.656.451.6.6,0,0,0-.287.492v.246a.475.475,0,0,1-.144.349.475.475,0,0,1-.349.144H9.557a.475.475,0,0,1-.349-.144.475.475,0,0,1-.144-.349v-.369a2.177,2.177,0,0,1,.656-1.6,6.086,6.086,0,0,1,1.23-.861l.082-.041a7.569,7.569,0,0,0,.861-.574.9.9,0,0,0,.287-.656.958.958,0,0,0-.513-.82,2.085,2.085,0,0,0-1.148-.328,1.982,1.982,0,0,0-1.087.287,4.309,4.309,0,0,0-.9.943.612.612,0,0,1-.308.164.41.41,0,0,1-.349-.082l-1.148-.861a.449.449,0,0,1-.185-.328.662.662,0,0,1,.062-.369,5.454,5.454,0,0,1,1.764-1.661,4.782,4.782,0,0,1,2.379-.554,4.368,4.368,0,0,1,1.969.492,4.265,4.265,0,0,1,1.579,1.312A3.068,3.068,0,0,1,14.889-10.131Zm-2.666,6.85a1.655,1.655,0,0,1-.513,1.21,1.655,1.655,0,0,1-1.21.513,1.655,1.655,0,0,1-1.21-.513,1.655,1.655,0,0,1-.513-1.21,1.655,1.655,0,0,1,.513-1.21A1.655,1.655,0,0,1,10.5-5a1.655,1.655,0,0,1,1.21.513A1.655,1.655,0,0,1,12.223-3.281Z" transform="translate(-0.328 18.047)" fill="#8e8484"/>
</svg>