<svg xmlns="http://www.w3.org/2000/svg" width="12.001" height="13.716" viewBox="0 0 12.001 13.716">
  <path id="Tracé_7" data-name="Tracé 7" d="M6-14.142A3.4,3.4,0,0,1,4.273-14.6a3.336,3.336,0,0,1-1.246-1.246,3.4,3.4,0,0,1-.455-1.728A3.4,3.4,0,0,1,3.027-19.3a3.336,3.336,0,0,1,1.246-1.246A3.4,3.4,0,0,1,6-21a3.4,3.4,0,0,1,1.728.455A3.336,3.336,0,0,1,8.974-19.3a3.4,3.4,0,0,1,.455,1.728,3.4,3.4,0,0,1-.455,1.728A3.336,3.336,0,0,1,7.728-14.6,3.4,3.4,0,0,1,6-14.142Zm2.411.857a3.513,3.513,0,0,1,1.795.482,3.56,3.56,0,0,1,1.313,1.313A3.513,3.513,0,0,1,12-9.7V-8.57a1.24,1.24,0,0,1-.375.911,1.24,1.24,0,0,1-.911.375H1.286a1.24,1.24,0,0,1-.911-.375A1.24,1.24,0,0,1,0-8.57V-9.7A3.513,3.513,0,0,1,.482-11.49,3.56,3.56,0,0,1,1.795-12.8a3.513,3.513,0,0,1,1.795-.482h.455A4.652,4.652,0,0,0,6-12.856a4.652,4.652,0,0,0,1.956-.429Z" transform="translate(0 21)" fill="#5fbcd3"/>
</svg>