<svg xmlns="http://www.w3.org/2000/svg" width="10.414" height="13.558" viewBox="0 0 10.414 13.558">
  <path id="Soustraction_1" data-name="Soustraction 1" d="M4.707,12.558a1.2,1.2,0,0,1-.392-.068,1.128,1.128,0,0,1-.613-.5L2.255,9.708C1.571,8.619,1.079,7.83.833,7.428A7.964,7.964,0,0,1,.171,5.982,4.421,4.421,0,0,1,0,4.707,4.568,4.568,0,0,1,.637,2.354,4.831,4.831,0,0,1,2.354.637,4.566,4.566,0,0,1,4.707,0,4.566,4.566,0,0,1,7.061.637,4.821,4.821,0,0,1,8.776,2.354a4.562,4.562,0,0,1,.638,2.354,4.392,4.392,0,0,1-.172,1.275A7.413,7.413,0,0,1,8.58,7.4c-.229.392-.707,1.167-1.422,2.3l-1.447,2.28a1.125,1.125,0,0,1-.613.5A1.2,1.2,0,0,1,4.707,12.558ZM4.761,2.381A2.164,2.164,0,1,0,6.925,4.545,2.166,2.166,0,0,0,4.761,2.381Z" transform="translate(0.5 0.5)" fill="#ff7f2a" stroke="rgba(0,0,0,0)" stroke-width="1"/>
</svg>