<svg xmlns="http://www.w3.org/2000/svg" width="18" height="18" viewBox="0 0 18 18">
  <path id="Tracé_189" data-name="Tracé 189" d="M17.894.738A.38.38,0,0,1,18,1.02a.514.514,0,0,1-.105.316l-.809.773a.437.437,0,0,1-.316.141.334.334,0,0,1-.281-.141L12.2-2.145a.468.468,0,0,1-.105-.281v-.492A7.552,7.552,0,0,1,9.879-1.6a7.07,7.07,0,0,1-2.566.475,7.1,7.1,0,0,1-3.674-.984A7.388,7.388,0,0,1,.984-4.764,7.1,7.1,0,0,1,0-8.437a7.1,7.1,0,0,1,.984-3.674,7.388,7.388,0,0,1,2.654-2.654,7.1,7.1,0,0,1,3.674-.984,7.1,7.1,0,0,1,3.674.984,7.388,7.388,0,0,1,2.654,2.654,7.1,7.1,0,0,1,.984,3.674,7.07,7.07,0,0,1-.475,2.566,7.552,7.552,0,0,1-1.318,2.215h.492a.38.38,0,0,1,.281.105ZM7.312-2.812a5.5,5.5,0,0,0,2.812-.756,5.585,5.585,0,0,0,2.057-2.057,5.5,5.5,0,0,0,.756-2.812,5.5,5.5,0,0,0-.756-2.812,5.585,5.585,0,0,0-2.057-2.057,5.5,5.5,0,0,0-2.812-.756,5.5,5.5,0,0,0-2.812.756A5.585,5.585,0,0,0,2.443-11.25a5.5,5.5,0,0,0-.756,2.812,5.5,5.5,0,0,0,.756,2.812A5.585,5.585,0,0,0,4.5-3.568,5.5,5.5,0,0,0,7.312-2.812Z" transform="translate(0 15.75)" fill="#456d27"/>
</svg>
