<svg xmlns="http://www.w3.org/2000/svg" viewBox="0 0 264.87 170.32"><defs><style>.cls-1{fill:#4c7534;}</style></defs><title>Fichier 3</title><g id="Calque_2" data-name="Calque 2"><g id="Calque_4" data-name="Calque 4"><path class="cls-1" d="M264.84,104.88a.3.3,0,0,0,0-.1.17.17,0,0,0,0-.1s0,0,0,0a2.27,2.27,0,0,0-.54-1.18,10.26,10.26,0,0,0-1.86-1.5,24.76,24.76,0,0,0-2.86-1.71,7.34,7.34,0,0,0-.91-2A7.23,7.23,0,0,0,257,96.63a17.87,17.87,0,0,0-4.21-2.21A15.72,15.72,0,0,0,248,93.35a12.32,12.32,0,0,0-4.86.79A17.22,17.22,0,0,0,239,96.4a28.73,28.73,0,0,0-3.74,3.19,12.39,12.39,0,0,0-2.87,3.85,7.73,7.73,0,0,0-.43,1.8,4.55,4.55,0,0,1-.68,2.15,5.94,5.94,0,0,1-1.42,1.25,21.73,21.73,0,0,1-2,1.22c-1.3.7-2.67,1.32-4,1.93l-1,.44c-1.27.58-2.59,1.17-3.84,1.86a14.6,14.6,0,0,0-3.91,2.89c-.4.44-.77.91-1.12,1.37a12.53,12.53,0,0,1-1.88,2.08,22.6,22.6,0,0,1-3.44,2.16l-.72.39a30.38,30.38,0,0,0-3.83,2.48L202,127.12c-2.66-.8-5.28-1.5-7.82-2.06l.36-.28c3.62-2.89,6.54-5.28,9.2-7.53s5.58-4.87,8.34-7.45l1.25-1.19a2.35,2.35,0,0,0,2,1.63h.14a3.13,3.13,0,0,0,1.6-.56,16.59,16.59,0,0,0,2.63-2.23l.77-.74.17-.16c.54-.49,1.29-1.17,1.16-1.92a1.28,1.28,0,0,0-.85-1,6.4,6.4,0,0,0-4.88.15,4.64,4.64,0,0,0-2.9,3.55l-.44.42-1.33,1.26c-2.74,2.57-5.54,5.07-8.3,7.41s-5.56,4.64-9.18,7.52l-1,.79c-2.66-.57-5.21-1-7.7-1.37l-1.21-1.06c1.22-.92,2.46-1.87,3.76-2.87q2.37-1.83,4.73-3.67,1.47.12,2.94.27c1,.1,1.92.22,2.87.34a.49.49,0,0,0,.56-.44.51.51,0,0,0-.44-.56l-2.88-.33q-1-.1-1.92-.18l1.91-1.51q4.86-3.85,9.66-7.77l1.36-1.1a3.07,3.07,0,0,0,.36.2,2.6,2.6,0,0,0,1,.19,4.72,4.72,0,0,0,3-1.41,23,23,0,0,0,2.34-2.51,15.61,15.61,0,0,1,3.3-3.2A16,16,0,0,1,220.21,96l.94-.28a11.13,11.13,0,0,0,2.51-1,19.64,19.64,0,0,0,3.75-3.1l.49-.47a9.7,9.7,0,0,0,1.95-2.28,1.43,1.43,0,0,0,.13-1.35,1.81,1.81,0,0,0-1.42-.89,10.67,10.67,0,0,0-7,1.38,6.54,6.54,0,0,0-1.82,1.64c-.16.21-.31.42-.46.64a5.74,5.74,0,0,1-1.14,1.33,3,3,0,0,1-.62.34,13.79,13.79,0,0,1-1.37.48,12.07,12.07,0,0,0-1.88.72,13.05,13.05,0,0,0-3.14,2.5c-1.29,1.31-2.47,2.74-3.51,4l-.17.2a7.69,7.69,0,0,0-1.62,2.57,1.84,1.84,0,0,0,0,1.27l-1.35,1.1q-4.8,3.92-9.65,7.77c-.9.72-1.82,1.44-2.74,2.16-2.73-.21-5.49-.33-8.23-.35a102.16,102.16,0,0,0-10.27.46h0c1.78-1.35,3.72-2.8,5.92-4.44,3.42-2.54,6.08-4.47,8.61-6.26,3-2.16,6.32-4.44,10-7l1.59-1.08a4.87,4.87,0,0,0,1.9,1.11,2.8,2.8,0,0,0,.84.12c1.69,0,3-1.46,3.63-2.22.39-.45.77-.9,1.14-1.36a31.54,31.54,0,0,1,2.25-2.53,21.71,21.71,0,0,1,3.78-3,46.64,46.64,0,0,1,4.48-2.35,45.77,45.77,0,0,0,4.54-2.38c2.09-1.31,4.27-2.94,4.53-5.19a3.15,3.15,0,0,0-1.52-3.18c-1.38-.65-3,.43-4.16,1.23-.26.17-.5.34-.7.45-1.5.87-3.1,1.62-4.64,2.35s-3.26,1.54-4.84,2.46a20.56,20.56,0,0,0-4,2.94c-.35.33-.69.67-1,1A31.66,31.66,0,0,1,203.43,88c-.42.33-.86.65-1.29,1a19.66,19.66,0,0,0-2.44,2,4.55,4.55,0,0,0-1.17,1.73,2.35,2.35,0,0,0-.13.77h0a3.37,3.37,0,0,0,.68,2l-1.48,1c-3.72,2.54-7,4.82-10,7-2.54,1.8-5.2,3.73-8.63,6.28-2.35,1.74-4.4,3.28-6.27,4.71a39.08,39.08,0,0,0-5.07-2.33l-.07,0,11.27-8q3.58-2.52,7.14-5.1l1.26-.9a2.76,2.76,0,0,0,2.23,1.67,1.83,1.83,0,0,0,.4,0,4.43,4.43,0,0,0,2.24-1.6,16.32,16.32,0,0,0,2.53-5c.13-.35.26-.7.38-1.06,3.41-2.87,6.61-6,9.57-9l2.55-2.55a2.61,2.61,0,0,0,.53.26,2.43,2.43,0,0,0,.74.12A3,3,0,0,0,211,78.91a5.21,5.21,0,0,0,0-2.6c0-.27-.09-.53-.11-.79a3.94,3.94,0,0,1,.47-2.3,16.6,16.6,0,0,1,.9-1.47,10.66,10.66,0,0,0,1.47-2.82,5,5,0,0,0,.1-1.79,4.56,4.56,0,0,1,0-1.28,6.43,6.43,0,0,1,1-2.09,11.51,11.51,0,0,0,.83-1.46,7.49,7.49,0,0,0,.74-3.4,4.16,4.16,0,0,0-.3-1.41h0c-.59-1.4-2.28-2.78-3.84-2.59-1.8.2-2.12,2.53-2.31,3.92,0,.25-.07.47-.1.65a4.63,4.63,0,0,1-1,2.28l-.39.44A4.53,4.53,0,0,0,207,65c0,.29,0,.57,0,.85a3.59,3.59,0,0,1-.18,1.58,6,6,0,0,1-.69,1.14,5.52,5.52,0,0,0-.92,1.67,4.86,4.86,0,0,0,.15,2.82l.07.28a2.94,2.94,0,0,1-.13,1.6,7.35,7.35,0,0,0-.21,1,5.35,5.35,0,0,0,1.21,3.83c-.84.83-1.67,1.66-2.5,2.5-2.94,3-5.53,5.49-8.23,7.86a25.69,25.69,0,0,0,.88-3.61l0-.16c.13-.77.35-2.06-.38-2.66s-1.51-.06-2,.22-1,.58-1.4.88-.79.53-1.2.76c-.24.14-.48.25-.72.36a7.51,7.51,0,0,0-1.32.74,7.18,7.18,0,0,0-2,3.52l-.34.94c-.29.81-.59,1.65-.83,2.5a3.71,3.71,0,0,0-.08,1.62c0,.23.1.45.16.67a12.52,12.52,0,0,0,.43,1.19l-1.4,1q-3.56,2.56-7.14,5.1l-11.85,8.37a25.09,25.09,0,0,0-9.89-1.29,23.39,23.39,0,0,0-6.88,1.72c.95-1,1.9-2,2.83-3,1.14-1.19,2.29-2.35,3.42-3.47,2-1.25,4.17-2.51,6.54-3.82,2.75-1.51,5.62-3,8.77-4.4l2-.89.23,0a5.78,5.78,0,0,0,1.95-.4,5.13,5.13,0,0,0,2.55-2,14.61,14.61,0,0,0,1.27-2.57,12,12,0,0,1,1.38-2.69,10.59,10.59,0,0,1,1.91-1.8,11.26,11.26,0,0,0,2.07-2,3.54,3.54,0,0,0,.3-3.42,3.09,3.09,0,0,0-.39-.72c1.31-1,2.62-1.92,3.93-2.86a.81.81,0,0,0,.09.1A2,2,0,0,0,190,79H190c1.64,0,3.3-2,4.71-3.83l.14-.19a43.81,43.81,0,0,0,4.43-7.13l.19-.38a25.38,25.38,0,0,0,2.73-7.23s.57-4.06-.85-5.16a1.46,1.46,0,0,0-1.57-.12,6.78,6.78,0,0,0-2.1,1.72l-.09.09c-.68.74-1.33,1.53-2,2.29-.29.36-.58.71-.88,1.06-1,1.15-1.89,2.15-2.81,3.05l-.51.48A17.16,17.16,0,0,0,189.3,66a12,12,0,0,0-1.91,5.94,11.72,11.72,0,0,0,.47,5.29l-4.17,3a2.58,2.58,0,0,0-1.2-.52,2.9,2.9,0,0,0-2.44,1.21,24.47,24.47,0,0,0-2.49,3.53c-.2.32-.4.65-.61,1l-2.08,1.69c-2.42,2-5,4.16-7.92,6.72s-5.3,4.77-7.64,7c-1.27,1.21-2.67,2.56-4.11,4-.61.38-1.21.76-1.8,1.15-3,2-5.65,3.83-8,5.67-1.3,1-2.52,2-3.69,3a24.82,24.82,0,0,0-6.42-.81,69.54,69.54,0,0,1,6.2-5.11,95.93,95.93,0,0,1,15.81-9.25l1.56-.74.65-.3a.5.5,0,0,0,.24-.66.5.5,0,0,0-.67-.24l-.64.3-1.57.73a97.47,97.47,0,0,0-16,9.35,70.6,70.6,0,0,0-7.17,6,16.26,16.26,0,0,0-7.31,2.63l.84-1.54a66.46,66.46,0,0,1,4.12-5.29,54.91,54.91,0,0,1,6.25-6.15A62.71,62.71,0,0,1,145,98.3c2.67-1.65,5.5-3.15,8.24-4.6l1.74-.92a4.33,4.33,0,0,0,1.9,1,4.23,4.23,0,0,0,.94.1,4.79,4.79,0,0,0,1.87-.39,14.21,14.21,0,0,0,4.23-3.24c.43-.42.85-.83,1.3-1.24,1.85-1.66,3.76-3.37,4.7-5.77a4.13,4.13,0,0,0,.19-3.08,1.94,1.94,0,0,0-2.47-.92,5.67,5.67,0,0,0-3,2l-.43.53a8.89,8.89,0,0,1-1.45,1.54,8.56,8.56,0,0,1-2.37,1.14l-.59.21a9.46,9.46,0,0,0-4.57,2.62,4.71,4.71,0,0,0-1.11,4.17h0a2.69,2.69,0,0,0,.26.54l-1.57.83c-2.75,1.46-5.59,3-8.3,4.63a64.61,64.61,0,0,0-7.47,5.33,56.82,56.82,0,0,0-6.08,6q1.31-2.15,2.61-4.12c2.52-3.81,4.73-6.91,7-9.73A79.07,79.07,0,0,1,148,86.42a58.56,58.56,0,0,1,9.07-7.1c2.83-1.81,5.86-3.4,8.78-4.95l3.55-1.88A3.7,3.7,0,0,0,172,73.6a3.21,3.21,0,0,0,1.86-.59A8.6,8.6,0,0,0,176,70.48,42.08,42.08,0,0,0,178.35,66l.47-1c.71-1.52,1.5-3,2.27-4.49,1-1.87,2-3.8,2.85-5.77,1.34-3.07,2.7-6.71,2.65-10.4,0-1,0-3.23-1.62-3.77s-3.15.76-4.31,1.9a9.66,9.66,0,0,0-2.58,5.82c-.06.38-.11.77-.15,1.15a15.79,15.79,0,0,1-.7,3.44,14.52,14.52,0,0,1-2.17,3.56l-1,1.31a37.6,37.6,0,0,0-5,8c-.6,1.44-1.3,3.57-.53,5.45h0a3.81,3.81,0,0,0,.29.57l-3.36,1.79c-2.95,1.55-6,3.16-8.86,5a61.22,61.22,0,0,0-9.22,7.23,81.09,81.09,0,0,0-7.67,8.56c-2.24,2.85-4.47,6-7,9.8-2,3-3.93,6.2-6,9.88-.1.17-.19.35-.29.53-.44.63-.89,1.28-1.33,2s-1.08,1.68-1.62,2.55a27.81,27.81,0,0,0-3.65,4.58c.36-1.35.72-2.7,1.09-4l.27-1c1.23-4.47,2.5-9.08,3.83-13.62.09-.12.17-.25.27-.37A104.81,104.81,0,0,1,137,91.63c.46-.44.93-.86,1.4-1.29l.14-.12a.5.5,0,0,0-.67-.74l-.14.12-1.41,1.3a105.45,105.45,0,0,0-10.54,11.4c.49-1.66,1-3.33,1.51-5,1.38-2.93,2.86-5.88,4.41-8.81.54-.58,1.09-1.17,1.66-1.76,2.17-2.25,4.56-4.55,7.1-6.84l1.34-1.2.43-.39a4.2,4.2,0,0,0,1.78.36,7.13,7.13,0,0,0,3.42-.9c1.55-.93,3.48-3.34,3.09-5.43-.26-1.39-1.51-2-3.34-1.75A7.44,7.44,0,0,0,142,73.65c-.42.63-1.63,2.71-.63,4l-.28.25-1.35,1.21c-2.22,2-4.31,4-6.25,6,1.72-3.07,3.5-6,5.33-8.68a66.1,66.1,0,0,1,7.46-9.22,109.31,109.31,0,0,1,8.34-7.37l2.8-2.3a14.54,14.54,0,0,0,1.34,1.85h0a9.41,9.41,0,0,0,1,1,3.24,3.24,0,0,0,2.05.87,2.21,2.21,0,0,0,1.22-.37c1.23-.8,2-2.41,2.46-4.79a26.6,26.6,0,0,0,.28-3.45,17.17,17.17,0,0,1,.68-4.93,8.82,8.82,0,0,1,1.15-2.07,8.16,8.16,0,0,0,1.45-3,7.72,7.72,0,0,0-.8-5.46,2.36,2.36,0,0,0-3.07-.81,9.53,9.53,0,0,0-4.31,4.22,19.62,19.62,0,0,0-1.37,3.59l-.22.73a17.27,17.27,0,0,1-1.6,3.48l-.06.1a8.86,8.86,0,0,0-1.62,4.86,8.25,8.25,0,0,0,.89,3.2L154,59.07a105.16,105.16,0,0,0-8.42,7.44A66.7,66.7,0,0,0,138,75.87c-2.17,3.19-4.28,6.69-6.29,10.39l-.87,1.62c-.37.4-.72.8-1.08,1.2.52-1.67,1.05-3.35,1.57-5l.26-.82a2.47,2.47,0,0,0,1.81-1.93,2.9,2.9,0,0,0-.5-2.07c1.36-4.1,2.95-8.81,4.55-13.42.63-1.82,1.23-3.53,1.81-5.17.11-.28.21-.57.31-.86.79-2.23,1.56-4.35,2.35-6.48l2.75-7.39a2.21,2.21,0,0,0,1.43.55,1.93,1.93,0,0,0,.58-.08,4.07,4.07,0,0,0,1.76-1.31,26.71,26.71,0,0,0,1.76-2.28c.35-.48.69-1,1.05-1.41.22-.3.46-.59.69-.88a30.64,30.64,0,0,0,2.18-2.94,19,19,0,0,0,1.73-3.71l.24-.64a20.54,20.54,0,0,1,1.37-3.2,20,20,0,0,1,1.83-2.57c.35-.45.71-.89,1-1.35a18.28,18.28,0,0,0,2-3.47,3.44,3.44,0,0,0,.4-1.82,1,1,0,0,0-.54-.8c-.7-.38-1.76.09-2.28.32a17.16,17.16,0,0,0-6.27,5.09,35,35,0,0,0-4.46,8.46,19,19,0,0,1-1.94,3.7c-.29.42-.61.83-.92,1.23a16.93,16.93,0,0,0-1.81,2.67,4.36,4.36,0,0,0-.55,3.39l-3,8.09c-.26.71-.53,1.42-.79,2.14a4.28,4.28,0,0,0-.8-2.53,1.55,1.55,0,0,0-1.93-.41,9.38,9.38,0,0,0-3.08,2.77c-.21.26-.42.51-.63.74l-.13.15a31.82,31.82,0,0,1-2.18,2.32c-.29.27-.6.52-.9.78A14.73,14.73,0,0,0,129,60.32a3.94,3.94,0,0,0-1,3.35,6.68,6.68,0,0,0,.88,2.46l-.68,2.28q-1.41,4.68-2.75,9.39c-1.23,1.14-1.64,2.2-1.22,3.14h0a1.63,1.63,0,0,0,.19.34l0,0-.36,1.36-.36.43a70.94,70.94,0,0,0-9.22,14.81,85.94,85.94,0,0,0-3.63,9.38c.26-1.37.53-2.73.81-4,.76-3.64,1.66-7.35,2.72-11.33.89-3.32,1.91-6.7,3.11-10.33s2.52-7.25,3.94-10.81,3-7.16,4.56-10.64c.24-.53.49-1.06.74-1.59L127,58a9.45,9.45,0,0,0,2.18-1.56,5.86,5.86,0,0,0,1.65-2.57,11.72,11.72,0,0,0,.27-3.77v-.28c1.82-3.41,3.8-7,5.92-10.62.45-.76.91-1.52,1.37-2.28l.3-.51a1.93,1.93,0,0,0,1.13.44h0a1.75,1.75,0,0,0,.32,0A3.34,3.34,0,0,0,142,35.31l.07-.1.63-.9A16.79,16.79,0,0,1,144,32.62c.22-.25.45-.49.68-.73a11.47,11.47,0,0,0,1-1.15,3.38,3.38,0,0,0,.07-4.26c-1-1.23-2.87-1.15-5.16.22-2.51,1.5-3.84,3.63-3.64,5.85a7.22,7.22,0,0,0,1.05,3.1l-.46.76-1.37,2.29c-1.77,3-3.44,6-5,8.93a25.31,25.31,0,0,1,.48-2.6,19.12,19.12,0,0,0,.56-3.57c0-.41.06-1.66-1-1.91a4,4,0,0,0-2.94,1,5.89,5.89,0,0,0-2.3,3,16.37,16.37,0,0,0-.5,2.1c-.09.45-.17.9-.28,1.34-.23.91-.51,1.83-.78,2.72-.13.43-.27.86-.39,1.3l-.08.25a16.6,16.6,0,0,0-.82,4l-.62,1.11c-2.16,3.81-4,7.24-5.58,10.49-1.26,2.56-2.38,5-3.41,7.4.87-4.83,1.88-9.6,2.66-13.22.83-3.85,1.82-8,3-12.77s2.34-8.84,3.49-12.75l1-3.22a1.29,1.29,0,0,0,.24-.05c1.4-.36,2.46-1.74,3.31-2.86l1-1.21a24.91,24.91,0,0,0,3.57-5.38c1.26-2.91,1.09-6.55-2.13-8.14a3.92,3.92,0,0,0-3.59,0,4.16,4.16,0,0,0-2.17,3,11.41,11.41,0,0,0,.06,3,11.18,11.18,0,0,1,.11,2.5,5,5,0,0,1-1.17,2.43,11.59,11.59,0,0,0-.74,1.09,4.74,4.74,0,0,0-.43,3.84,2.59,2.59,0,0,0,1,1.47l-.93,3.15c-1.15,3.91-2.3,8.1-3.5,12.78s-2.22,9-3.05,12.81c-.79,3.68-1.82,8.54-2.7,13.45-.26,1.45-.51,2.89-.75,4.34-1.24,3.21-2.4,6.59-3.43,10.1s-2,7.3-2.74,11.28q-.49,2.48-.91,5.19c-.4-1.23-.81-2.44-1.23-3.62-.88-2.44-1.87-4.87-3-7.26l.09-1.1c.25-2.92.56-5.92,1-9.15s.86-6.26,1.35-9.19l.31-1.75a3.09,3.09,0,0,0,1.27.25,5.69,5.69,0,0,0,1-.1,9.16,9.16,0,0,0,4.41-2.16c2-1.86,2.21-4.6,2.21-7v-.62a11.8,11.8,0,0,0-.72-5.16,1.39,1.39,0,0,0-1.48-.94c-1.09.14-2,1.22-2.67,2l-.84.95-.81.91c.6-2.58,1.23-5.17,1.9-7.74a3.29,3.29,0,0,0,.58-.16,9.7,9.7,0,0,0,3.39-2.67,10,10,0,0,0,2.11-3.17,10.72,10.72,0,0,0,.5-3.91c0-1.56-.1-3.13-.19-4.65,0-.68-.09-1.35-.12-2-.19-3.83-.17-7.91,1.27-11.8a39.43,39.43,0,0,1,2.07-4.47l.64-1.26.22-.43a11,11,0,0,0,1.36-3.77,2.12,2.12,0,0,0-.58-1.79,2.62,2.62,0,0,0-2.18-.64c-2.5.28-4.24,2.71-5.47,4.8A33.66,33.66,0,0,0,106.89,29a26.42,26.42,0,0,0-.35,5.92l0,.72a13,13,0,0,1-.18,4.09,14.8,14.8,0,0,1-.8,2.08,13.67,13.67,0,0,0-.91,2.49,11.61,11.61,0,0,0-.08,4.16,12.07,12.07,0,0,0,1.05,4.05,2.1,2.1,0,0,0,.81.89c-.84,3.22-1.63,6.49-2.36,9.72,0,0,0,0,0,0a11.19,11.19,0,0,0-1.26,2.21,12.33,12.33,0,0,0-1.16,5.32,3.47,3.47,0,0,0,.55,1.82l-.39,2.28c-.5,2.94-1,6-1.36,9.24-.38,3-.68,5.81-.92,8.55,0-.1-.09-.2-.14-.29-1.52-3.15-3.15-6.16-4.84-9-.36-.6-.75-1.2-1.13-1.8.15-2.84.34-5.44.58-7.92.49-5,1.07-9.72,1.79-14.29.34-2.19.75-4.58,1.29-7.47a3.43,3.43,0,0,0,2.41-1.14,5.06,5.06,0,0,0,1.14-2.87,7.83,7.83,0,0,0-.21-2.41c-.06-.31-.13-.62-.17-1a3,3,0,0,1,.94-2.24,4.54,4.54,0,0,0,1.18-2.49,6.62,6.62,0,0,0,0-.77,3.74,3.74,0,0,1,0-.82,6.08,6.08,0,0,1,.41-1.32l.07-.19a5.83,5.83,0,0,0,.59-3.54,6.64,6.64,0,0,1-.11-3.12c.08-.37.19-.75.3-1.13a8.26,8.26,0,0,0,.47-3.11,2.16,2.16,0,0,0-.35-1h0a2.67,2.67,0,0,0-2.09-1,3.93,3.93,0,0,0-3,1,5.12,5.12,0,0,0-.94,3.18l0,.39a5.33,5.33,0,0,1-1.08,3c-.16.23-.34.45-.51.67a7.94,7.94,0,0,0-1.62,2.8,4.92,4.92,0,0,0,.64,3.59c.7,1.41-.07,2.59-1,3.94a12.62,12.62,0,0,0-1.09,1.92,6.32,6.32,0,0,0,1.23,6.6,3.59,3.59,0,0,0,1.79,1c-.52,2.84-.93,5.2-1.27,7.37-.72,4.6-1.31,9.29-1.79,14.36-.2,2.08-.37,4.24-.51,6.56-1.13-1.76-2.3-3.5-3.51-5.2-1.87-2.6-4-5.33-6.44-8.37L82,65.73q.56-4.08,1.35-8.28c.86-4.44,2-9,3.42-14,1.32-4.55,2.87-9.17,4.6-13.73l1.26-3.25.26-.1a5.24,5.24,0,0,0,1.72-1.65,18.14,18.14,0,0,0,2.1-3.59,19.26,19.26,0,0,0,1.17-3.89,18,18,0,0,1,1.2-3.89,16.17,16.17,0,0,1,1.65-2.54A13.17,13.17,0,0,0,102.88,7a4.07,4.07,0,0,0-.42-3.42,5.17,5.17,0,0,0-2.57-2.17,2.42,2.42,0,0,0-3.06,1.11A14.76,14.76,0,0,0,95.2,7.85c-.17,1-.32,1.87-.56,2.72a5.81,5.81,0,0,1-.85,1.92,7.52,7.52,0,0,1-.7.83,9.48,9.48,0,0,0-.91,1.14c-1.18,1.85-1.74,4.54-1.67,8v.13c0,1.29.12,2.86.84,3.56.07.06.16.1.23.15-.39,1-.79,2-1.17,3-1.74,4.59-3.3,9.23-4.63,13.81-1.45,5-2.58,9.65-3.44,14.13-.55,2.85-1,5.67-1.37,8.44l0-.71c-.15-4-.23-7.9-.23-11.73V50.58a2.32,2.32,0,0,0,.46,0,4.25,4.25,0,0,0,3.17-2.31,4.39,4.39,0,0,0,0-2.66,20.24,20.24,0,0,0-1.14-3.26c-.18-.45-.37-.9-.54-1.35-.65-1.72-.21-3.05.4-4.88l0-.15a9.44,9.44,0,0,0,.21-6.35c-.56-1.53-1.51-2.33-2.7-2.25a3.15,3.15,0,0,0-2.58,2.3A29.29,29.29,0,0,0,76.62,34a6.23,6.23,0,0,0,0,3,9.8,9.8,0,0,0,.6,1.61,4.14,4.14,0,0,1,.55,2.57A17.43,17.43,0,0,1,77.26,43a8,8,0,0,0-.52,4.16,4.56,4.56,0,0,0,3,3.34v2.82c0,3.85.08,7.81.23,11.77.1,2.45.21,4.67.34,6.77l0,.34a134.5,134.5,0,0,0-.44,14.7c0,.93.06,1.87.11,2.81-.46-.34-.91-.69-1.38-1-1.57-1.1-3.22-2.1-4.88-3.07,0-.55,0-1.1.07-1.66.15-3,.43-6.15.91-10.24l.25-2.16a7,7,0,0,0,3.4-1c1-.63,1.85-2,.62-4.86l-.06-.16c-.63-1.47-1.69-3.95-3.85-3.64a7.23,7.23,0,0,0-3.1,1.49,9.81,9.81,0,0,0-2.79,2.95,4.42,4.42,0,0,0-.3.68c-.29-1.5-.57-3-.85-4.67-.35-2-.67-4-1-6,.15-1.61.32-3.17.51-4.69L67.7,50A3.38,3.38,0,0,0,69,48.78a4.89,4.89,0,0,0,0-3.88c-.11-.35-.25-.69-.39-1a145.89,145.89,0,0,1,4-17.08c.45-1.49.94-3,1.5-4.7a6.21,6.21,0,0,0,1.71-.31,4.48,4.48,0,0,0,2.64-2.15,10.4,10.4,0,0,0,.89-4.37,14.74,14.74,0,0,1,.28-2.55,2.49,2.49,0,0,1,.53-1.18,4.28,4.28,0,0,1,.8-.63,5.88,5.88,0,0,0,.86-.67c1.31-1.3,1.13-3.48.82-5.22-.34-1.93-.93-4.23-2.5-4.88s-2.88,1.2-3.53,2.09l-.07.09C75.64,3.49,74.87,4.76,74.12,6c-.24.4-.48.79-.73,1.18-.55.89-1.15,1.76-1.74,2.63l-1,1.42c-1.1,1.66-2.48,3.73-2.38,6a5,5,0,0,0,2.91,4.38.37.37,0,0,0,.18,0l.24.1.32.13a6.83,6.83,0,0,0,1.08.2c-.51,1.55-1,3-1.41,4.43a145.67,145.67,0,0,0-3.73,15.82l-.47-.88c-1.08-2-2.09-3.92-1.82-6.18.05-.46.13-.93.21-1.39a11.88,11.88,0,0,0,.2-4,11.13,11.13,0,0,0-1.91-4.13l-.66-1c-2.06-3-4-5.91-4-9.64a30.35,30.35,0,0,1,.38-3.81c.15-1,.3-2.06.36-3.11a3.83,3.83,0,0,0-.72-3,2.48,2.48,0,0,0-2.14-.67,4.81,4.81,0,0,0-3.21,2.21A11.84,11.84,0,0,0,52.94,12c-.07,1.39,0,2.8,0,4.17,0,1.08,0,2.2,0,3.3V20a33.39,33.39,0,0,0,.26,6.84,16.09,16.09,0,0,0,2.27,5.37l.22.38A12.61,12.61,0,0,1,57.07,38a13.26,13.26,0,0,0,1,4.53c0,1.12-.08,2.23-.1,3.35a128.12,128.12,0,0,0,.45,13.36c.36,4.28.95,8.71,1.74,13.16S62,81.31,63.14,85.62c.23.84.45,1.64.68,2.45q-2.24-1.23-4.69-2.46l-1.68-.83-.75-.37a.5.5,0,0,0-.45.9l.76.37,1.67.83c2,1,3.77,1.94,5.52,2.92.85,3,1.73,5.84,2.66,8.59.45,3.23,1,6.37,1.58,9.36.41,2,.88,4,1.38,6-.92-.77-1.85-1.53-2.81-2.29-2.32-1.85-4.8-3.68-7.37-5.48-1.56-3.82-3-7.75-4.21-11.71-.64-2.07-1.26-4.29-2-7.15a1.84,1.84,0,0,0,.86-.86,2.44,2.44,0,0,0,.07-1.59A13.37,13.37,0,0,0,53,81.13c-.16-.32-.33-.64-.48-.95L52.45,80a3.76,3.76,0,0,0-.92-1.39c-.53-2.61-1-5.23-1.42-7.52a3,3,0,0,0,2.28-2.37,7.06,7.06,0,0,0,.12-1.57c0-.29,0-.58,0-.87a14.63,14.63,0,0,1,.53-2.6l.25-1c.39-1.55.83-3.3.11-4.9a5.79,5.79,0,0,0-1.87-2.31A2.47,2.47,0,0,0,49.34,55a3.78,3.78,0,0,0-2.21,2.35A4.81,4.81,0,0,0,47,59.9,8.11,8.11,0,0,1,47.14,61a9.87,9.87,0,0,1-.59,3A16.55,16.55,0,0,0,46,66.17a4.72,4.72,0,0,0,1,3.45A3.79,3.79,0,0,0,49.09,71c.4,2.22.86,4.78,1.37,7.34a1.64,1.64,0,0,0-.49.23,5.14,5.14,0,0,0-1.87,4.25,4.59,4.59,0,0,0,2.41,3.91c-.12,3.65-.19,6.75-.1,9.86,0,1.1.08,2.16.14,3.2l-1-.58c-2.71-1.56-5.54-3-8.4-4.44v0a96.63,96.63,0,0,1-.65-14.21A116.56,116.56,0,0,1,41.8,66.21c.72-4.69,1.66-9.34,2.81-13.81.26-1,.53-2,.81-3a3,3,0,0,0,.42,0,2.55,2.55,0,0,0,1.47-.48,4,4,0,0,0,1.58-2.76,10.41,10.41,0,0,0-.06-1.94l0-.21c-.09-.89-.12-1.81-.15-2.7l0-.69a9.1,9.1,0,0,0-.74-3.71,3.29,3.29,0,0,0-3.74-1.85c-2,.45-2.86,2.48-2.57,6a17.45,17.45,0,0,0,1.43,6A4.75,4.75,0,0,0,44.49,49c-.29,1.06-.58,2.12-.85,3.19a137.84,137.84,0,0,0-2.82,13.9,114.69,114.69,0,0,0-1.29,14.47,99.05,99.05,0,0,0,.6,13.74h0c-.57-.28-1.15-.54-1.72-.81l-.46-.21a.5.5,0,0,0-.66.25.49.49,0,0,0,.24.66l.46.21,1.71.8.58.29a83.11,83.11,0,0,0,2.17,11l-4.66-4.22-1.9-1.71a.49.49,0,0,0-.7,0,.5.5,0,0,0,0,.71l1.9,1.71L43,108.26c.06.21.11.43.17.64.65,2.14,1.4,4.23,2.23,6.28l-1.9.38L36,109.22a.51.51,0,0,0-.71.06.49.49,0,0,0,.06.7l6.9,5.84c-1.62.35-3.23.74-4.83,1.16-1.05-2-2-4.08-2.92-6.07C33.18,108,32,105,30.89,101.82c-.23-.65-.44-1.3-.66-1.95A3.12,3.12,0,0,0,31,97.32a13.45,13.45,0,0,0-.82-4.38,2.38,2.38,0,0,0-1.37-1.48,4.31,4.31,0,0,0-2.94.34,11.3,11.3,0,0,0-1.07.48c-1.27-3.62-2.39-7-3.42-10.37a3.59,3.59,0,0,0,2-2,7.37,7.37,0,0,0,.63-2.9l.05-1a25.23,25.23,0,0,1,.36-3.89c.19-1,.34-2,.5-3a35.89,35.89,0,0,1,1.52-6.82c.09-.26.19-.52.29-.78a15.37,15.37,0,0,0,1-3.61,3.32,3.32,0,0,0-.17-1.72,1.87,1.87,0,0,0-.48-.69h0a4.05,4.05,0,0,0-3.38-.69,5.94,5.94,0,0,0-3.54,1.66c-1.3,1.42-1.13,3.45-.87,5.24.08.49.16,1,.25,1.46A19,19,0,0,1,20,66.51a9.59,9.59,0,0,1-.64,3.23l-.25.68a12.94,12.94,0,0,0-.87,3.13,12.18,12.18,0,0,0,.21,3.53A13.69,13.69,0,0,0,19.61,81a2.16,2.16,0,0,0,.7.79c1.09,3.53,2.27,7.14,3.62,11a11.88,11.88,0,0,0-1.44,1.06c-1.71,1.5-2.26,3-1.51,4.21a.47.47,0,0,0,.1.1l.09.13.09.12a6.21,6.21,0,0,0,3,1.45,21.94,21.94,0,0,0,2.38.51c2.35,6.22,4.62,11.88,7,17.26q1.83,4.23,3.88,8.41c-2.3-.7-4.72-1.4-7.28-2.08l-1.51-.4-.68-.18a.5.5,0,0,0-.26,1l.69.18,1.5.39c2.89.78,5.6,1.56,8.16,2.37,1.12,2.25,2.27,4.49,3.47,6.69l.22.41-3.92-2-2.68-1.35a.5.5,0,0,0-.45.9l2.68,1.34,5.23,2.64c.13.21.25.43.37.64-1.4.18-2.82.37-4.29.59-1.66.26-3.33.56-5,.89-.3-.36-.59-.72-.87-1.09-3.3-4.29-5.74-9.21-8.1-14l-1-1.93a.5.5,0,0,0-.67-.22.49.49,0,0,0-.22.67l.95,1.92a83.6,83.6,0,0,0,8.21,14.14l.55.69q-3.1.63-6.37,1.44a120.41,120.41,0,0,0-11.9,3.63,93.76,93.76,0,0,0-11.55,5c-.86.45-1.7.92-2.55,1.39a.5.5,0,1,0,.5.87c.83-.47,1.66-.93,2.51-1.37a94,94,0,0,1,11.43-5,119.2,119.2,0,0,1,11.8-3.6c2.35-.58,4.62-1.09,6.84-1.53.7.83,1.43,1.64,2.2,2.46-1.57.68-3.13,1.38-4.65,2.1l-.06-.08-.33-.44a.5.5,0,1,0-.8.6l.28.37-1.87.91-1.19.63c-1.63.23-3.18.48-4.58.72l-2.2.37a.51.51,0,0,0-.41.58.51.51,0,0,0,.58.41l2.2-.38,1.79-.29c-2.38,1.32-4.7,2.7-6.89,4.14-.8.52-1.57,1.06-2.35,1.61a.49.49,0,0,0-.13.69.5.5,0,0,0,.7.13c.77-.54,1.54-1.07,2.32-1.59a107.43,107.43,0,0,1,9.28-5.42c1.37-.2,2.8-.37,4.28-.52a47,47,0,0,0,8,8.16,105.14,105.14,0,0,0-16,3.64l-2.11.66a.5.5,0,0,0,.31.95l2.09-.66a103.15,103.15,0,0,1,16-3.62l.88-.1c.65.46,1.3.91,2,1.32s1.23.74,1.86,1.08a107,107,0,0,0-14,1.5l-1.4.22a.5.5,0,0,0,.15,1l1.41-.22A102.8,102.8,0,0,1,45,158.56h1.36a74.78,74.78,0,0,0,11.21,4.35,116.34,116.34,0,0,0,12.93,3.14,56.21,56.21,0,0,0,9.16,3.64c.72.22,1.45.42,2.18.61a.32.32,0,0,0,.13,0,.5.5,0,0,0,.48-.37.48.48,0,0,0-.35-.61c-.72-.2-1.44-.39-2.15-.61a53.47,53.47,0,0,1-5.59-2c1.51.25,3,.49,4.62.71q4.33,1.56,8.84,2.87l.14,0a.49.49,0,0,0,.48-.36.5.5,0,0,0-.34-.62c-1.36-.39-2.72-.81-4.06-1.24,2.15.27,4.38.51,6.69.74l3.54.34c.9.37,1.83.73,2.81,1.11a.47.47,0,0,0,.17,0,.51.51,0,0,0,.47-.32.49.49,0,0,0-.11-.52l.58.05,1.89.75a.43.43,0,0,0,.19,0,.51.51,0,0,0,.2-.06.46.46,0,0,0,.23.06.46.46,0,0,0,.31-.13l.1.06a.48.48,0,0,0,.26.07.52.52,0,0,0,.43-.24.38.38,0,0,0,0-.1l.45.27a.52.52,0,0,0,.27.07h0a.48.48,0,0,0,.42-.23s0,0,0-.05l.23.18a.5.5,0,0,0,.31.1.42.42,0,0,1,.4,0h0l.11,0,.12,0a.57.57,0,0,0,.18,0,.47.47,0,0,0,.17,0h0l.1,0,.09,0a.57.57,0,0,0,.18,0l.13,0a.47.47,0,0,0,.3-.1h0a.49.49,0,0,0,.29.11l.06,0,.07,0,.13,0a.45.45,0,0,0,.11,0h0a.43.43,0,0,0,.19,0,.5.5,0,0,0,.13,0,.4.4,0,0,0,.15,0s0,0,.08,0h.48l.09,0h.31l.07,0,.09,0h.11l.08,0h.68s.07,0,.1,0h0l.16,0H109l.08,0,.11,0,.09,0,.1,0h.1l.08,0,.08,0,.08,0,.08,0a.5.5,0,0,0,.43-.25l.24-.41a.48.48,0,0,0,.13.52.47.47,0,0,0,.34.14l.09,0,.09,0a.51.51,0,0,0,.36-.15l5.09-5.19a52.61,52.61,0,0,1,6.74-5.14,51.14,51.14,0,0,1,11.58-5.29c-.57.82-1.16,1.63-1.77,2.42l-3,1.95c-2.13,1.38-4.34,2.8-6.53,4.16l-10.21,6.32a.48.48,0,0,0-.16.68.47.47,0,0,0,.42.24.48.48,0,0,0,.26-.07l10.22-6.32c2.2-1.36,4.4-2.79,6.54-4.17l.4-.25a40.2,40.2,0,0,1-9.39,7.87c-1.77.6-3.61,1.25-5.56,2a.51.51,0,0,0-.3.64.5.5,0,0,0,.47.33.57.57,0,0,0,.18,0l.42-.16a.5.5,0,0,0,.36.19.57.57,0,0,0,.18,0l.37-.15a.49.49,0,0,0,.36.18.41.41,0,0,0,.21,0c1-.47,2-1,3-1.54l2.29-.93c2.69-.87,5.22-1.61,7.7-2.24a135.58,135.58,0,0,1,15.53-3.06H147q-3.43,1.31-6.9,2.49c-4.62,1.56-9.39,3-14.57,4.36a.5.5,0,0,0-.36.61.5.5,0,0,0,.49.37.25.25,0,0,0,.12,0l.55-.15a.49.49,0,0,0,.36.17h.08c5.27-.78,9.69-1.35,13.89-1.8s8.63-.81,13.66-1.12c4.2-.26,8.6-.41,13.43-.46,4.32,0,8.73,0,13.11.2,4.21.17,8.71.46,14.16.91l1.3.11a.49.49,0,0,0,.54-.46.5.5,0,0,0-.45-.54l-1.31-.1c-5.46-.46-10-.75-14.2-.92-4.4-.17-8.83-.24-13.16-.2-4.85.05-9.26.2-13.49.46-5,.31-9.51.68-13.7,1.12-2.7.29-5.48.63-8.52,1,2.88-.84,5.67-1.71,8.39-2.64,3.51-1.19,7-2.49,10.46-3.89,2.64-.27,5.3-.46,8-.57a.93.93,0,0,0-.05.1,5.13,5.13,0,0,0-.3,1.13c0,.18,0,.36,0,.54l0,.4a3.44,3.44,0,0,1-.15.55,3.44,3.44,0,0,0-.11.34,1.13,1.13,0,0,0-.06.63.66.66,0,0,0,.37.44.66.66,0,0,0,.28,0,1.88,1.88,0,0,0,.86-.31,16.94,16.94,0,0,0,1.69-1.1l.39-.27,1.35-1,.62-.44c.56-.4,1.15-.8,1.77-1.21q4.52,0,9.21.37c.61.44,1.24.87,1.83,1.32s1,.79,1.51,1.2a.5.5,0,1,0,.63-.78c-.51-.41-1-.82-1.53-1.21-.16-.13-.34-.24-.51-.37l1.33.11a146.62,146.62,0,0,1,15.31,2.32l1.36.29.35.08a.52.52,0,0,0,.6-.39.5.5,0,0,0-.39-.59l-.35-.08-1.37-.29A148.9,148.9,0,0,0,178,161c-1-.1-2-.17-3-.25-1.33-.94-2.7-1.86-4.13-2.74l.93-.53c.66-.36,1.34-.7,2-1.06l.16.15c.55.51,1.08,1,1.62,1.55a.5.5,0,0,0,.7,0,.5.5,0,0,0,0-.71l-1.54-1.48c.58-.3,1.15-.62,1.72-.91.76-.39,1.53-.76,2.3-1.14l1.57-.23c1.16-.17,2.29-.37,3.4-.56l.79.18,1.57.44.11,0a.5.5,0,0,0,.62-.35.48.48,0,0,0-.34-.61l-.12,0-.28-.08,1.21-.21c1.45.38,2.88.79,4.28,1.22l.33.39.12.14a.51.51,0,0,0,.71.06.52.52,0,0,0,.13-.17l.71.23a76.07,76.07,0,0,1,9.72,4c.77.39,1.52.79,2.27,1.2a.5.5,0,0,0,.68-.2.5.5,0,0,0-.2-.68c-.76-.42-1.52-.82-2.3-1.21a76.51,76.51,0,0,0-9.84-4.06c-.58-.2-1.17-.38-1.76-.57l-.78-.91,2.21-.21,1.39-.12a10.22,10.22,0,0,1,2.12,0l.29,0a19.11,19.11,0,0,0,2.17.15,7.6,7.6,0,0,0,2.23-.36,6.45,6.45,0,0,0,.92-.38.73.73,0,0,0,.39.3,1.08,1.08,0,0,0,.64,0l.39-.08a4.69,4.69,0,0,1,.54-.11,2.18,2.18,0,0,1,1.2.31l.31.15a4.7,4.7,0,0,0,1.71.62,1.52,1.52,0,0,1,1,.35,3,3,0,0,0,1.24.81,3.92,3.92,0,0,0,1.8-.06l.32-.08a.55.55,0,0,0,0,.37.6.6,0,0,0,.61.36l.27,0a5.23,5.23,0,0,0,.64,1.52,9.86,9.86,0,0,0,1.42,1.66,3.2,3.2,0,0,0,1.14.7c.75.35,1.53.72,2.26,1.15a37.82,37.82,0,0,1,3.4,2.33l1.1.81,1.45,1.07a3.92,3.92,0,0,1,.32.25h-.09l-.84-.1c-.67-.07-1.36-.15-2-.17a5.16,5.16,0,0,0-2.33.46,6.4,6.4,0,0,0-1.91,1.17,2.19,2.19,0,0,0-.75,1.3,1.15,1.15,0,0,0,.45,1,.67.67,0,0,0,.73,0,1.11,1.11,0,0,0,.39-.5,1.33,1.33,0,0,1,.27-.38,2.62,2.62,0,0,1,1.22-.58.14.14,0,0,0,0,.07,1.42,1.42,0,0,0,.25.47,1.93,1.93,0,0,0,1.09.69,7,7,0,0,0,2.23.08c.72,0,1.45-.16,2.15-.27a21,21,0,0,1,2.61-.29,4.81,4.81,0,0,1,.91.05c.26,0,.5.11.75.17l.38.1a8.61,8.61,0,0,0,2.32.21c.58,0,1.16,0,1.75-.09a18.79,18.79,0,0,1,3-.05,11,11,0,0,1,1.74.31l.46.11c.66.15,1.32.25,2,.35l.48.07h.08a.47.47,0,0,0,.26-.08h0v0a.22.22,0,0,0,.09-.1l0,0a.75.75,0,0,0,0-.16v0h0a.33.33,0,0,0,0-.1.28.28,0,0,0,0-.09.39.39,0,0,0-.06-.15l0,0h0a8.65,8.65,0,0,0-2.08-2.1,7.48,7.48,0,0,0-4.23-1.2h-2.43a6.44,6.44,0,0,1-2.15-.27,7.14,7.14,0,0,1-1.7-1l-.58-.44c-.48-.36-1-.73-1.46-1.07-.81-.57-1.63-1.12-2.45-1.67l-1.68-1.13c-.69-.47-1.31-.9-1.9-1.39a17.05,17.05,0,0,1-1.49-1.46v0a6.41,6.41,0,0,0-.09-2c.38-.17.75-.35,1.13-.51l5.45-2.36c1.23-.53,2.55-1.11,3.86-1.74s2.83-1.37,4.41-2.28a49,49,0,0,0,4.25-2.69,29.8,29.8,0,0,0,3.72-3.12,30.19,30.19,0,0,0,3.2-3.76c.85-1.15,1.63-2.36,2.4-3.54l.54-.83c.38-.59.76-1.17,1.16-1.74s.86-1.14,1.3-1.7l.18-.24a9,9,0,0,0,1.26-2,12.83,12.83,0,0,0,.71-2.32,27.65,27.65,0,0,0,.44-4.9,27.62,27.62,0,0,1,.39-4.59,5.49,5.49,0,0,1,.65-1.86,7.26,7.26,0,0,1,.64-.88,11.14,11.14,0,0,0,.72-1,19.77,19.77,0,0,0,1.79-4.2l1.12-.12a11.19,11.19,0,0,0,4.21-1.61c.13,0,.27.08.4.14h0a.57.57,0,0,0,.18,0h.09a.37.37,0,0,0,.18-.08h0a.58.58,0,0,0,.16-.19s0,0,0,0A.06.06,0,0,0,264.84,104.88Zm-48.41-.13a5.42,5.42,0,0,1,4.06-.15c.22.1.28.18.28.2,0,.22-.63.82-.85,1l-.19.17-.78.75a15.64,15.64,0,0,1-2.46,2.1,2.18,2.18,0,0,1-1.14.4,1.53,1.53,0,0,1-1.23-1.34,1.24,1.24,0,0,1,0-.27A3.58,3.58,0,0,1,216.43,104.75Zm-9.65-2a7,7,0,0,1,1.44-2.23l.17-.21c1-1.24,2.19-2.66,3.45-3.94a12.2,12.2,0,0,1,2.9-2.31,9.93,9.93,0,0,1,1.71-.65,15.23,15.23,0,0,0,1.47-.52,4.41,4.41,0,0,0,.81-.46h0a6.51,6.51,0,0,0,1.37-1.56c.14-.2.28-.4.43-.59a5.55,5.55,0,0,1,1.55-1.41A9.92,9.92,0,0,1,227,87.55a7.56,7.56,0,0,1,1.36.12c.44.08.65.22.7.32a.62.62,0,0,1-.1.45,9.64,9.64,0,0,1-1.77,2l-.5.48a18.69,18.69,0,0,1-3.55,2.94,10,10,0,0,1-2.28.86c-.33.09-.66.18-1,.29a17.62,17.62,0,0,0-4,1.92,16.49,16.49,0,0,0-3.52,3.4,23.06,23.06,0,0,1-2.24,2.4c-1.18,1-2.14,1.37-2.94,1A.74.74,0,0,1,206.78,102.79Zm-7.3-9.87a3.7,3.7,0,0,1,.93-1.34,19.79,19.79,0,0,1,2.31-1.86c.45-.32.9-.64,1.33-1a32.45,32.45,0,0,0,2.64-2.44l1-1a19.92,19.92,0,0,1,3.79-2.8c1.53-.89,3.17-1.67,4.76-2.42s3.17-1.5,4.7-2.38a8.89,8.89,0,0,0,.77-.5c1-.65,2.31-1.55,3.17-1.15a2.19,2.19,0,0,1,1,2.16c-.21,1.83-2.18,3.28-4.07,4.46A44.68,44.68,0,0,1,217.34,85a45.47,45.47,0,0,0-4.58,2.4,23.27,23.27,0,0,0-3.95,3.12c-.84.83-1.59,1.74-2.32,2.61-.37.45-.74.9-1.12,1.34-1,1.16-2.12,2.18-3.44,1.8a4,4,0,0,1-1.68-1s0,0,0,0a.38.38,0,0,0-.11-.11,2.56,2.56,0,0,1-.72-1.68A1.72,1.72,0,0,1,199.48,92.92Zm6.94-19.83-.07-.28a4,4,0,0,1-.17-2.28,5.17,5.17,0,0,1,.78-1.38,6.17,6.17,0,0,0,.8-1.34,4.47,4.47,0,0,0,.26-2c0-.25,0-.51,0-.77a3.69,3.69,0,0,1,1.25-2.19l.41-.45a5.6,5.6,0,0,0,1.24-2.75c0-.19.07-.43.11-.7.16-1.18.41-2.95,1.43-3.07h.16a3.42,3.42,0,0,1,2.65,2A3.18,3.18,0,0,1,215.5,59a6.67,6.67,0,0,1-.66,2.95,11.9,11.9,0,0,1-.75,1.32,6.9,6.9,0,0,0-1.15,2.43,5.41,5.41,0,0,0,0,1.55,4.29,4.29,0,0,1-.06,1.44,9.93,9.93,0,0,1-1.34,2.55c-.33.5-.67,1-1,1.56a5,5,0,0,0-.58,2.85c0,.28.08.57.12.86a4.31,4.31,0,0,1,0,2.11,1.87,1.87,0,0,1-2.16,1.19,2.07,2.07,0,0,1-.52-.29s0,0,0,0,0,0-.06,0a4.16,4.16,0,0,1-1.23-3.3,8.12,8.12,0,0,1,.19-.91A3.86,3.86,0,0,0,206.42,73.09ZM187.2,93.93c.22-.81.52-1.64.8-2.43l.34-1a6.41,6.41,0,0,1,1.71-3,6.12,6.12,0,0,1,1.13-.63c.27-.13.54-.25.79-.4.43-.24.85-.52,1.27-.8a14.11,14.11,0,0,1,1.38-.86c.6-.33.8-.35.86-.29s.19.73,0,1.71l0,.17a34,34,0,0,1-1.85,6.4,15.47,15.47,0,0,1-2.34,4.62,3.63,3.63,0,0,1-1.69,1.28c-.72.15-1.32-.66-1.73-1.49a.42.42,0,0,0-.08-.21s0,0,0,0a10.2,10.2,0,0,1-.47-1.3,3.39,3.39,0,0,1-.14-.57A2.59,2.59,0,0,1,187.2,93.93Zm-31.26-6a8.77,8.77,0,0,1,4.11-2.31l.61-.21a9.39,9.39,0,0,0,2.64-1.29,10,10,0,0,0,1.62-1.7c.14-.17.27-.34.42-.51a4.76,4.76,0,0,1,2.5-1.72c.7-.17,1.14,0,1.33.36a3.14,3.14,0,0,1-.21,2.31c-.85,2.17-2.68,3.8-4.46,5.41-.44.39-.87.82-1.31,1.25a13.47,13.47,0,0,1-3.92,3,3.6,3.6,0,0,1-2.2.23,3,3,0,0,1-1.85-1.16,2.08,2.08,0,0,1-.22-.45A3.72,3.72,0,0,1,155.94,87.91Zm14-21.84a36.35,36.35,0,0,1,4.92-7.78l1-1.31a15.09,15.09,0,0,0,2.31-3.82,16.12,16.12,0,0,0,.75-3.65c.05-.38.09-.76.15-1.13a8.83,8.83,0,0,1,2.29-5.25c1.34-1.32,2.54-1.93,3.28-1.67.92.31.94,2.15,1,2.84,0,3.5-1.27,7-2.57,10-.84,1.94-1.84,3.85-2.81,5.7-.78,1.47-1.58,3-2.3,4.54l-.47,1A38.3,38.3,0,0,1,175.18,70a7.55,7.55,0,0,1-1.91,2.24,2.49,2.49,0,0,1-3.33-.59,3.33,3.33,0,0,1-.53-.86C168.78,69.21,169.42,67.34,170,66.07Zm-27.1,8.13a6.53,6.53,0,0,1,4.44-2.65c.9-.14,2-.1,2.21.94.29,1.57-1.33,3.62-2.62,4.39s-3.38,1.07-4.45.41a1,1,0,0,1-.16-.12C141.6,76.53,142.32,75,142.85,74.2Zm15.69-25.12.06-.1a18.55,18.55,0,0,0,1.68-3.68l.23-.74a17.64,17.64,0,0,1,1.29-3.4,8.34,8.34,0,0,1,3.81-3.78,1.37,1.37,0,0,1,1.86.45,6.71,6.71,0,0,1,.65,4.71,7.23,7.23,0,0,1-1.3,2.6,10,10,0,0,0-1.27,2.3,18.13,18.13,0,0,0-.73,5.22,25.93,25.93,0,0,1-.27,3.32c-.35,2.1-1,3.48-2,4.12-.22.14-.88.57-2.08-.43a8.11,8.11,0,0,1-.92-.93,13.62,13.62,0,0,1-1.47-2.11.37.37,0,0,0-.09-.19h0a7.57,7.57,0,0,1-.91-3A8.12,8.12,0,0,1,158.54,49.08Zm-13.1-7.16a15.06,15.06,0,0,1,1.71-2.51c.32-.42.65-.84.95-1.28a20.94,20.94,0,0,0,2.07-3.94,33,33,0,0,1,4.3-8.17,16.12,16.12,0,0,1,5.9-4.8c1-.45,1.3-.4,1.42-.27a3,3,0,0,1-.38,1.34,16.19,16.19,0,0,1-1.89,3.2c-.32.45-.67.88-1,1.32a21.71,21.71,0,0,0-1.91,2.69,21,21,0,0,0-1.44,3.36l-.23.63A18.91,18.91,0,0,1,153.28,37a33,33,0,0,1-2.12,2.86c-.24.29-.47.58-.7.88-.37.47-.72,1-1.07,1.45a23.77,23.77,0,0,1-1.7,2.19,3.23,3.23,0,0,1-1.3,1,1.16,1.16,0,0,1-1.22-.42,1.27,1.27,0,0,1-.2-.31A3.36,3.36,0,0,1,145.44,41.92ZM141.1,27.56c1.06-.63,3-1.52,3.88-.43a2.4,2.4,0,0,1-.09,3c-.29.37-.62.71-1,1.07s-.5.5-.73.77a19.82,19.82,0,0,0-1.32,1.77c-.2.3-.4.6-.61.89l-.07.09c-.32.44-.75,1-1.2,1.13-.05,0-.09,0-.12,0a1.13,1.13,0,0,1-.76-.39.49.49,0,0,0-.23-.33h0a6.35,6.35,0,0,1-.91-2.66C137.72,29.87,140.08,28.17,141.1,27.56Zm-18.2-.22a12.14,12.14,0,0,1,.69-1A5.83,5.83,0,0,0,125,23.41a12.84,12.84,0,0,0-.11-2.71,10.36,10.36,0,0,1-.08-2.77,3.17,3.17,0,0,1,1.65-2.3,3.08,3.08,0,0,1,1.37-.34,3,3,0,0,1,1.31.31c2.64,1.3,2.73,4.38,1.66,6.85a23.62,23.62,0,0,1-3.44,5.15l-1,1.24c-.76,1-1.7,2.22-2.76,2.49l-.22,0h0c-.43,0-.68-.71-.77-1A3.74,3.74,0,0,1,122.9,27.34Zm-17.31,21a10.54,10.54,0,0,1,.07-3.8,12.68,12.68,0,0,1,.85-2.31,15.59,15.59,0,0,0,.85-2.23,13.87,13.87,0,0,0,.21-4.4l0-.7a26.3,26.3,0,0,1,.34-5.71,33,33,0,0,1,4-11.06c1.11-1.88,2.66-4.08,4.72-4.31h.29a1.49,1.49,0,0,1,1.07.37,1.14,1.14,0,0,1,.3,1A10.18,10.18,0,0,1,117,18.54l-.22.43c-.2.42-.42.84-.63,1.25a43.44,43.44,0,0,0-2.12,4.58c-1.5,4.06-1.53,8.26-1.33,12.2,0,.68.08,1.36.12,2,.09,1.51.18,3.07.19,4.59a9.91,9.91,0,0,1-.44,3.56,9.27,9.27,0,0,1-1.9,2.85,9,9,0,0,1-3,2.4l-.5.13h0c-.08,0-.33,0-.62-.54A11.51,11.51,0,0,1,105.59,48.3Zm-1.83,17.41A17,17,0,0,1,107.1,61l.55-.62c.1-.1.2-.23.31-.35.56-.66,1.33-1.57,2-1.66.08,0,.24,0,.45.39a11,11,0,0,1,.62,4.71v.63c0,2.31-.15,4.7-1.89,6.28a8.05,8.05,0,0,1-3.91,1.92,3,3,0,0,1-1.83-.12l-.15-.07a.23.23,0,0,0-.07-.07,2,2,0,0,1-.53-1.48A11.44,11.44,0,0,1,103.76,65.71ZM94,44.58a11.36,11.36,0,0,1,1-1.75c.93-1.41,2-3,1-4.93a4.08,4.08,0,0,1-.58-2.9,7.27,7.27,0,0,1,1.45-2.43l.53-.7a6.36,6.36,0,0,0,1.26-3.5l0-.4a4.32,4.32,0,0,1,.68-2.57,3,3,0,0,1,2-.7h.18a1.79,1.79,0,0,1,1.34.57,1,1,0,0,1,.17.54,7.33,7.33,0,0,1-.43,2.72c-.12.41-.23.81-.32,1.2a7.73,7.73,0,0,0,.11,3.54,5.1,5.1,0,0,1-.57,3.06l0,.1A6.81,6.81,0,0,0,101.4,38a5.19,5.19,0,0,0,0,1c0,.21,0,.43,0,.65a3.75,3.75,0,0,1-1,1.93,3.93,3.93,0,0,0-1.14,3q.08.52.18,1a6.72,6.72,0,0,1,.19,2.1A4.3,4.3,0,0,1,98.78,50a2.54,2.54,0,0,1-1.81.82,2.63,2.63,0,0,1-2-.74A5.35,5.35,0,0,1,94,44.58ZM91.51,22.44C91.44,19.19,92,16.68,93,15a7.56,7.56,0,0,1,.82-1,11.71,11.71,0,0,0,.77-.92,7,7,0,0,0,1-2.23A26.59,26.59,0,0,0,96.18,8a14,14,0,0,1,1.5-5,1.46,1.46,0,0,1,1.26-.82,1.78,1.78,0,0,1,.61.12,4.21,4.21,0,0,1,2.06,1.75,3.11,3.11,0,0,1,.32,2.61,12.37,12.37,0,0,1-2,3.53,18.22,18.22,0,0,0-1.74,2.69A18.42,18.42,0,0,0,96.88,17a19.21,19.21,0,0,1-1.11,3.7,17.29,17.29,0,0,1-2,3.4,4.42,4.42,0,0,1-1.35,1.34.46.46,0,0,1-.22.07.21.21,0,0,1-.16-.07c-.24-.23-.52-.9-.54-2.85ZM72,20.83a1.68,1.68,0,0,0-.49-.17,4,4,0,0,1-2.25-3.48c-.08-1.95,1.14-3.78,2.22-5.4.31-.48.63-.95,1-1.42.59-.86,1.19-1.75,1.76-2.66.25-.39.49-.79.73-1.19.74-1.21,1.5-2.46,2.35-3.61l.07-.09c.5-.68,1.53-2.09,2.34-1.75,1.26.52,1.74,3.23,1.89,4.12.27,1.51.45,3.36-.53,4.34a5.92,5.92,0,0,1-.72.55,5.15,5.15,0,0,0-1,.79,3.62,3.62,0,0,0-.77,1.63,16.65,16.65,0,0,0-.3,2.71,9.42,9.42,0,0,1-.78,4,3.55,3.55,0,0,1-2.07,1.66,5.54,5.54,0,0,1-3.25.08ZM43.93,46.63A16.28,16.28,0,0,1,42.59,41c-.25-3,.34-4.64,1.8-5A2.32,2.32,0,0,1,47,37.37a8.35,8.35,0,0,1,.63,3.3l0,.69c0,.9.07,1.83.15,2.75l0,.22a8.57,8.57,0,0,1,.06,1.74,3,3,0,0,1-1.15,2,1.5,1.5,0,0,1-1.28.25,1.06,1.06,0,0,1-.19-.06A3.33,3.33,0,0,1,43.93,46.63ZM19.4,76.89a10.9,10.9,0,0,1-.21-3.23A11.94,11.94,0,0,1,20,70.77l.25-.69a10.59,10.59,0,0,0,.7-3.57,19.37,19.37,0,0,0-.4-3.43c-.09-.48-.18-1-.25-1.43-.22-1.57-.38-3.33.62-4.42a5,5,0,0,1,2.93-1.35,6.15,6.15,0,0,1,.88-.07,2.5,2.5,0,0,1,1.69.5,1.16,1.16,0,0,1,.25.36,2.53,2.53,0,0,1,.09,1.21,14.83,14.83,0,0,1-1,3.37c-.1.26-.2.53-.29.79a37.24,37.24,0,0,0-1.57,7c-.15,1-.31,2-.5,2.94a27,27,0,0,0-.37,4L23,77a6.3,6.3,0,0,1-.52,2.5c-.38.77-1.07,1.54-1.57,1.46-.14,0-.28-.17-.45-.46A12.45,12.45,0,0,1,19.4,76.89ZM193.88,126c2.31.52,4.69,1.14,7.1,1.85l-2,1.6c-.92.7-1.87,1.44-2.75,2.22a15.34,15.34,0,0,0-1.34,1.33c-1.47-1.59-3.05-3.25-4.69-4.88,1-.74,2-1.51,2.95-2.28ZM185,150.86l.27-.12c.93-.43,1.8-.82,2.62-1.18l1.4,1.56c-.68.09-1.36.19-2,.31C186.54,151.23,185.78,151,185,150.86Zm-.15-1c-.47.21-1,.45-1.42.67q-2.77-.62-5.57-1.09c1.08-.62,2.19-1.25,3.26-1.92s2-1.33,3-2c1,1.09,2.08,2.19,3.11,3.3C186.46,149.1,185.69,149.45,184.87,149.83Zm-9,.71.16-.09.46-.26c1.81.29,3.63.63,5.44,1l-.61.29C179.58,151.11,177.75,150.8,175.89,150.54Zm-38.38,2.19-.25.07q.92-1.49,1.74-3c.95-.15,1.91-.29,2.92-.42s2.05-.23,3.12-.33h.08l-2.72,1.83-1.58,1C139.7,152.17,138.59,152.43,137.51,152.73ZM86.89,164.5c-.62-.19-1.24-.36-1.87-.54-1.84-.92-3.63-1.86-5.34-2.82-2-1.14-3.92-2.28-5.71-3.43a105.86,105.86,0,0,1,13.22,4.65l.78.53q3.36,2.19,7.2,4.42C92.42,166.29,89.65,165.34,86.89,164.5ZM44.07,147.83c-.91-.69-1.76-1.38-2.6-2.08a74.13,74.13,0,0,1,7.78.69c.7,1,1.41,2,2.13,2.93,1.12,1.49,2.24,2.87,3.38,4.17-.83,0-1.65-.07-2.49-.08C49.33,151.63,46.62,149.77,44.07,147.83ZM37.27,142l2.49-1c1.56-.62,3.16-1.22,4.78-1.79q2,3.27,3.94,6.2a71.81,71.81,0,0,0-8.21-.6C39.21,143.81,38.21,142.88,37.27,142Zm8.1-4.64.54.28-.94.32-.3-.51Zm11.84-3.61a87.62,87.62,0,0,1-7.48-11.52l2.52,2.13c3,2.51,6,5.12,8.83,7.65l.33.28.62,1c-1.39.27-2.82.58-4.27.93l-.33-.17Zm2.14-26.12c.81,1.92,1.69,3.87,2.65,5.87-1.13,0-2.28,0-3.45.11-1.51.08-3.06.21-4.62.37a61.21,61.21,0,0,1-1.7-7.68c-.22-1.48-.41-3-.54-4.58,2.05,1.24,4.07,2.51,6,3.83.39.26.76.53,1.14.79C59,106.72,59.17,107.16,59.35,107.58Zm-.74,7c1.31-.07,2.6-.1,3.88-.11.84,1.74,1.74,3.52,2.71,5.37a3.4,3.4,0,0,0-1,.84c-.83,1-.54,2.44.77,3.63h0a7.22,7.22,0,0,0,.68.56,14.16,14.16,0,0,0,3.4,1.8l.67,1.12q1.14,1.9,2.46,4c-.92.08-1.87.18-2.83.3-1.08-1.07-2.13-2.11-3.17-3.12-3.26-3.19-6.92-6.75-10.67-10.34-.42-1.09-.82-2.2-1.17-3.3l-.1-.37C55.7,114.76,57.17,114.64,58.61,114.56Zm9.23-16.77q-.28-2-.51-4.05c-.1-.89-.19-1.77-.28-2.65l.42.25c1.88,1.14,3.62,2.29,5.29,3.46a90.3,90.3,0,0,0,1.11,9.53c.56,3.32,1.33,6.72,2.33,10.39-.69-.15-1.4-.28-2.12-.4-.48-1.15-1-2.33-1.45-3.53-1.55-3.82-3.09-8-4.7-12.71Zm5.88-3.6c0-1-.09-2.09-.11-3.15.37,1.27.77,2.59,1.19,4l-1.07-.77ZM105,109.87l.18.66a1.24,1.24,0,0,0-.27,0Zm-1,3.45c.15-.33.3-.67.49-1l.17-.29s0,0,0,0a1.19,1.19,0,0,1,.32-.37.26.26,0,0,1,.27,0,1.13,1.13,0,0,1,.22.14.45.45,0,0,0,.27.3,9.68,9.68,0,0,1,1.26,2.89,8.25,8.25,0,0,1,.25,1.63l-.09,1.32a4.36,4.36,0,0,1-1.2,2.35,5.63,5.63,0,0,1-2.57,1.37h0a.51.51,0,0,0-.28.08,3.58,3.58,0,0,1-1,0l-.07,0a.71.71,0,0,0-.2,0,2,2,0,0,1-.77-.33,1.07,1.07,0,0,1-.16-.14c-.89-1-.39-3,.35-4a7.63,7.63,0,0,1,.87-.94,7.33,7.33,0,0,0,1.17-1.35A13.07,13.07,0,0,0,104,113.32Zm19.11-26.9c-1.29,4.91-2.42,9.37-3.41,13.55-.35,1.45-.68,2.88-1,4.28-1.23,2.15-2.37,4.33-3.39,6.52a88.07,88.07,0,0,0-3.7,9.36c-.17.5-.33,1-.49,1.51.37-1.82.74-3.62,1.14-5.39a157.37,157.37,0,0,1,4.76-17,69,69,0,0,1,3.3-7.91C121.13,89.65,122.1,88,123.08,86.42Zm3.23,10.5c-.11.24-.23.49-.35.73-1.62,3.48-3.14,7-4.55,10.47-1.43,2.07-2.76,4.18-4,6.31.68-3.18,1.4-6.43,2.18-9.81q.66-1.14,1.35-2.25a89,89,0,0,1,5.87-8.28c.18-.22.38-.45.56-.68C127,94.58,126.67,95.75,126.31,96.92Zm-2.17,7.24a2.76,2.76,0,0,1-.08.27l-.08.12ZM172.87,116l.51,0a57.08,57.08,0,0,1,5,3.29c1.3,1,2.61,2,4,3.11l-.88.66a88.54,88.54,0,0,0-9-.41c-1.9-.94-3.73-1.77-5.51-2.52l3.41-2.67,1.71-1.32Zm3.45,33.17h-.1c1.48-.95,2.93-1.92,4.32-2.9.83-.58,1.67-1.19,2.51-1.82l.34.35c-.91.64-1.84,1.28-2.79,1.88-1.14.72-2.33,1.4-3.49,2.06Zm-23,.85c-1.54-.48-3.08-.9-4.6-1.25,1.17-.07,2.35-.13,3.6-.17,2.05-.06,4.16,0,6.28,0l-1,.63-.95.56Q154.93,149.84,153.28,150Zm-81.93,6,0,0c-2.89-2-5.45-3.92-7.82-5.9l-.56-.47c3.37,1,6.8,2.22,10.26,3.61,1.15.46,2.29,1,3.43,1.44,2.21,1.77,4.48,3.47,6.8,5.12a103.85,103.85,0,0,0-11.11-3.55Zm-19.18-7.22c-.52-.69-1-1.4-1.55-2.12,1.91.31,3.82.68,5.73,1.13,1.39.33,2.8.7,4.23,1.1.74.66,1.49,1.31,2.26,2,1.83,1.53,3.78,3,5.9,4.55a82.85,82.85,0,0,0-12.6-1.78C54.81,152.11,53.49,150.51,52.17,148.77Zm-2.59-11.33c.47.57,1,1.12,1.43,1.68l-1.28-.67-1.26-.66Zm1-.32.66-.21.49-.13c2.22-.14,4.35-.21,6.43-.23a108.88,108.88,0,0,0,7.55,8.39c1.85,1.85,3.78,3.65,5.76,5.41q-3.92-2.23-8-4.51c-3.27-1.81-6.55-3.57-10-5.42C52.48,139.34,51.54,138.24,50.62,137.12Zm15.44-16.6.07,0,0,0a4.87,4.87,0,0,1,1.73-.29,6.8,6.8,0,0,1,1.63.2,8.67,8.67,0,0,1,2.6,1.08l.12.07A4.93,4.93,0,0,1,74,123.38a2.57,2.57,0,0,1,.13,2.09,1.43,1.43,0,0,1-1,.81,4.81,4.81,0,0,1-2.27-.11,9.76,9.76,0,0,1-1.37-.41h0A12.73,12.73,0,0,1,66.22,124a5.58,5.58,0,0,1-.6-.49c-.43-.39-1.35-1.39-.65-2.27A2.51,2.51,0,0,1,66.06,120.52Zm11.12-6c-1-3.65-1.76-7-2.33-10.32a86.78,86.78,0,0,1-1-8.63l1.48,1.11c.2.63.39,1.26.6,1.91,1.14,3.65,2.42,7.49,3.78,11.42.7,2,1.45,4.13,2.24,6.34-.43-.16-.85-.32-1.3-.46-1.06-.34-2.17-.63-3.31-.89C77.27,114.81,77.22,114.65,77.18,114.49Zm3.14,2.32c.7.22,1.38.47,2.05.72.55,1.54,1.13,3.11,1.74,4.76,1.1,2.93,2.32,6.08,3.8,9.79-1.86-2.4-3.81-4.73-5.83-6.93-.76-.84-1.56-1.67-2.36-2.5q-1.16-3.36-2.09-6.59C78.55,116.29,79.45,116.53,80.32,116.81Zm19.06,12.77c0,.08,0,.16,0,.24,0,.24-.07.48-.11.72-.56-.94-1.14-1.85-1.75-2.69a30.83,30.83,0,0,0-2-2.48c-.31-2.05-.58-4-.81-5.82.06.12.12.22.18.33a95.26,95.26,0,0,1,4.36,9.45A2.6,2.6,0,0,1,99.38,129.58Zm1.24-5.1c-.16.6-.31,1.2-.47,1.83-.07-1.17-.14-2.41-.21-3.74C100.17,123.21,100.4,123.85,100.62,124.48Zm1.55-1.82.23,0c.13,0,.25,0,.38,0-.08,1.62-.14,3.16-.18,4.63-.3-1-.6-1.89-.93-2.84.08-.3.16-.61.25-.9Zm4.47-1.78c.12-.12.23-.25.34-.38-.08,1.36-.15,2.7-.21,4-.49,2.88-.91,5.82-1.24,8.83-.12,1.06-.21,2.15-.3,3.23-.5-2-1.07-4.13-1.7-6.31,0-2.39.12-5,.26-7.79A6.63,6.63,0,0,0,106.64,120.88Zm7.84,19.56c-.78,2.16-1.52,4.32-2.19,6.45-.14.45-.27.9-.4,1.35.56-2,1.16-4,1.83-6,.33-.95.66-1.89,1-2.82Zm9.35-10.76a5.43,5.43,0,0,1,3.55-.39c-1,1.29-2,2.64-3,4-.79,1.13-1.55,2.27-2.29,3.42-.19.16-.39.31-.57.48a30.19,30.19,0,0,0-6.45,8.46c-.18.32-.35.66-.52,1l0-.05a83.71,83.71,0,0,1,4.63-10.55,61.44,61.44,0,0,1,3.29-5.54A7.92,7.92,0,0,1,123.83,129.68Zm4.9,0,.21.1c-.74,1-1.49,2-2.24,3-.32.45-.63.92-1,1.38-.45.25-.9.52-1.33.8.25-.38.51-.76.77-1.13q1.59-2.25,3.23-4.31Zm30.8-11.29c1.69.51,3.43,1.11,5.24,1.82l.21.09c-1.25,1-2.57,2-4,3.2l-.76.14-1-.71c-1.25-.84-2.48-1.6-3.68-2.31.8-.6,1.61-1.18,2.4-1.76Zm23.63,24.67c-.61-.62-1.23-1.24-1.85-1.85.89.41,1.75.84,2.62,1.27Zm-3.13-1.7c.78.76,1.55,1.53,2.32,2.3-.8.59-1.6,1.17-2.39,1.73-1.67,1.18-3.43,2.34-5.24,3.48l-1.37-.2c-2.71-.37-5.53-.63-8.38-.83-.54-.38-1.07-.76-1.61-1.12,1.19-.75,2.44-1.56,3.79-2.43l.2-.13c2,.61,4,1.28,5.91,2.07.66.26,1.31.53,2,.81a.5.5,0,0,0,.39-.92c-.66-.28-1.32-.56-2-.82-1.71-.69-3.45-1.29-5.19-1.85,2.72-1.78,5-3.28,7.05-4.73l1.38.55,1.82.8C179.14,140.53,179.59,141,180,141.39ZM60.25,136.56c.83.43,1.66.87,2.48,1.33,1.58.88,3.17,1.82,4.77,2.8.26.33.52.66.79,1,2.06,2.54,4.32,5.09,6.72,7.59,2.19,2.29,4.54,4.56,7,6.74-1.14-.55-2.29-1.08-3.45-1.6l-2-1.14-.27-.15a128.17,128.17,0,0,1-9.84-8.88c-2.48-2.48-4.82-5.06-7-7.68ZM64.58,135l.83.72-.43,0-.66-.92Zm14.56,1.21c-.61-1.19-1.21-2.44-1.79-3.72,1.45,0,2.83,0,4.16.1.53,1.05,1.06,2.11,1.61,3.15.64,1.21,1.29,2.41,1.95,3.61A49.49,49.49,0,0,0,80,137.8C79.69,137.28,79.41,136.75,79.14,136.22Zm27.22-.58c0,.27,0,.53,0,.81-.08,1.35-.13,2.71-.18,4.06,0-.22-.09-.44-.14-.66q.15-2.46.39-4.86C106.37,135.21,106.37,135.42,106.36,135.64Zm3.21,4c.11,2.29.15,4.56.15,6.8-.56,2.91-1,5.65-1.39,8.27-.15-1.62-.33-3.25-.56-4.9-.07-.55-.16-1.11-.24-1.66A85.16,85.16,0,0,1,109.4,137C109.46,137.92,109.53,138.8,109.57,139.67Zm20.91-6.4c-.63.85-1.25,1.72-1.88,2.6-1.29,1.38-2.55,2.83-3.77,4.33a91.54,91.54,0,0,0-6.4,9c-.81,1.29-1.59,2.64-2.37,4,1.32-2.77,2.71-5.5,4.19-8.15,2-3.67,4.07-7,6.2-10.06A24.67,24.67,0,0,1,130.48,133.27Zm44.88,4.35c-2.52-1-5.15-1.9-8-2.8l-.12,0,1.69-1.24,1.35-1q2.73,2.3,5.46,4.8l-.05,0ZM84,133.74c-.14-.31-.27-.63-.4-.94,1,.12,2,.26,2.93.44.41.08.81.18,1.21.27h0c.55.72,1.09,1.46,1.63,2.2.47,1.15.94,2.28,1.41,3.4s1,2.55,1.48,3.84a29.56,29.56,0,0,0-4.13-2.33c-.4-.19-.81-.37-1.23-.55C85.92,138,84.94,135.89,84,133.74Zm17.15,17.41a91.6,91.6,0,0,1-1.17-9.3c0-.19,0-.38,0-.56.29.4.57.82.84,1.25.33,2.48.76,5.19,1.34,8.45.44,2.47.85,4.63,1.27,6.66-.49-1.23-1-2.39-1.56-3.49-.11-.36-.21-.73-.32-1.11C101.41,152.42,101.28,151.79,101.17,151.15Zm-1.31-16.37c.18,1.7.39,3.52.66,5.59-.22-.29-.43-.58-.66-.85C99.79,137.82,99.79,136.26,99.86,134.78Zm33-1.71.36-.31c.53.5,1,1,1.47,1.46.27.28.53.57.79.86-1.23,1-2.46,2-3.66,3.09a82.47,82.47,0,0,0-8.21,8.68,47.93,47.93,0,0,0-3.33,3.65c1.63-2.75,3.29-5.41,5-7.9,1.43-2.15,2.82-4.16,4.19-6.09Q131.07,134.71,132.81,133.07Zm-27,19.54a2.5,2.5,0,0,1,0,.29c0-.07,0-.13,0-.2A.28.28,0,0,0,105.76,152.61Zm-1,.23c0,.76.06,1.52.1,2.28-.15-1.17-.29-2.33-.4-3.48v-.08C104.57,152,104.67,152.41,104.77,152.84Zm-1.3-1.1c.09.84.2,1.7.3,2.55-.21-1.1-.43-2.24-.64-3.47-.38-2.12-.69-4-.95-5.73.24.51.47,1,.69,1.57l.21.56C103.2,148.7,103.32,150.2,103.47,151.74Zm-1.88,6.16c-.42-1-.83-2.07-1.24-3.13.36.78.71,1.58,1.05,2.38C101.46,157.4,101.52,157.65,101.59,157.9ZM119,150.65c-1.36,2.31-2.68,4.68-4,7.07-.26.36-.51.71-.76,1.08a101,101,0,0,1,5-9.07q1.48-2.39,3.09-4.64C121.23,146.89,120.09,148.75,119,150.65Zm-11.55,6v-.14l0-1.05c.08.88.15,1.75.2,2.62C107.54,157.59,107.48,157.12,107.42,156.64Zm-2.71-9.5c0,.57,0,1.14,0,1.71-.2-.63-.42-1.25-.65-1.85-.08-1.05-.14-2.08-.21-3.1.3,1,.58,2.08.84,3.16C104.7,147.09,104.71,147.11,104.71,147.14Zm-3.27-10.2c.43,1,.84,2.12,1.23,3.22,0,1.35.13,2.72.21,4.11-.35-.71-.72-1.4-1.12-2.05,0-.22-.05-.43-.08-.64-.27-2.09-.49-3.92-.68-5.61C101.14,136.3,101.3,136.61,101.44,136.94ZM94,144.14c-.62-1.43-1.25-2.9-1.88-4.39.45.7.9,1.4,1.34,2.11q1.2,1.95,2.32,3.94c-.54-.51-1.11-1-1.69-1.47Zm1,2.32a24.87,24.87,0,0,1,1.87,2c1.31,3.66,2.57,7,3.85,10.16l.51,1.23c-.76-1.55-1.48-3-2.15-4.44C97.7,152.36,96.34,149.35,95.06,146.46ZM135,137.4l1.39-1.28c.74.88,1.43,1.76,2.08,2.62a22.58,22.58,0,0,0-7.23,2.37Q133,139.22,135,137.4Zm2.13-2c.76-.69,1.56-1.39,2.38-2.11s1.78-1.19,2.67-1.73l1,0h.1a3.88,3.88,0,0,0-.79,3.31,2.68,2.68,0,0,0,.64,1.31c-.18.76-.37,1.54-.59,2.31a22.47,22.47,0,0,0-3,.09C138.81,137.59,138,136.51,137.08,135.45Zm14.54-4.19c-1.13-.15-2.25-.29-3.39-.4a1.17,1.17,0,0,0-.53-.57,3.67,3.67,0,0,0-3.17.34l-.69,0a52.45,52.45,0,0,1,11.47-4.8c1.3-.36,2.65-.67,4-1-2.59,2.1-4.83,4-6.93,5.72Zm-7.17.58a2.6,2.6,0,0,1,.37-.23l.11-.07a3.93,3.93,0,0,1,1.72-.49,1.35,1.35,0,0,1,.59.12c.07,0,.09.07.1.1a1.9,1.9,0,0,1-.35,1.09,9.73,9.73,0,0,1-1.94,2.55,2.76,2.76,0,0,1-1,.68.31.31,0,0,1-.21,0,1.4,1.4,0,0,1-.41-.86A2.81,2.81,0,0,1,144.45,131.84Zm-.77,6.27c.14-.51.26-1,.37-1.52l.28,0a3.39,3.39,0,0,0,1.4-.92,10.9,10.9,0,0,0,2.14-2.81,4.24,4.24,0,0,0,.4-1c.78.08,1.55.16,2.32.26C148.05,134.3,145.66,136.38,143.68,138.11Zm-1.6,1.41c-.39.33-.77.67-1.14,1l-.69-1C140.86,139.52,141.47,139.5,142.08,139.52Zm1.09.37.32-.28c.23,0,.46,0,.69,0,.84.1,1.7.27,2.56.45-1.26,0-2.5.13-3.72.26C143.08,140.21,143.12,140.05,143.17,139.89Zm1.35-1.19c2.87-2.5,5.23-4.54,7.41-6.39,1.8.25,3.58.55,5.31.92,2.67.55,5.28,1.2,7.78,1.93-1.46,1.06-3,2.13-4.51,3.22-1,.72-2.18,1.54-3.42,2.4a62.75,62.75,0,0,0-6.52-.64A31.9,31.9,0,0,0,144.52,138.7Zm11.37,2.92-.63.44-1.49-.69C154.47,141.44,155.18,141.53,155.89,141.62Zm1.44.21,1,.16a72.67,72.67,0,0,1,7.77,1.81q-2,1.26-3.67,2.34c-.7-.45-1.4-.9-2.1-1.32q-2.07-1.26-4.06-2.26Zm1.19-.82h0l2.57-1.81c1.77-1.25,3.48-2.47,5.15-3.68l.84.26c2.58.81,5,1.64,7.3,2.53-2.1,1.44-4.38,3-7.17,4.78A72.93,72.93,0,0,0,158.52,141Zm9.83-8.27c-.75.56-1.53,1.12-2.31,1.68-2.76-.82-5.63-1.55-8.59-2.17q-2.22-.47-4.5-.81l.11-.09c2.26-1.91,4.68-3.91,7.53-6.22,2.94,2,5.88,4.26,8.91,6.76ZM155,124.85a52.83,52.83,0,0,0-10.45,4.22c2.21-1.79,4.46-3.55,6.77-5.32,1.07-.83,2.17-1.65,3.26-2.46,1.31.77,2.64,1.59,4,2.5l.22.15C157.55,124.21,156.27,124.5,155,124.85Zm-16.19,7.7c-.88.61-1.76,1.24-2.63,1.91l-.85-.93c-.37-.38-.77-.79-1.2-1.21a41.61,41.61,0,0,1,5.71-.66Zm-19.47,12c-2.2,4-4.25,8.08-6.07,12.25-.4.9-.78,1.81-1.16,2.73,1-2.92,2.16-5.84,3.44-8.68,1.37-3.05,2.89-6.05,4.5-8.91.86-1.52,1.78-3,2.74-4.54.51-.41,1-.81,1.57-1.18C122.7,138.83,121,141.58,119.38,144.56Zm-.16-3.1c-1.63,2.89-3.16,5.91-4.54,9-1.29,2.86-2.45,5.8-3.46,8.73.1-.49.21-1,.31-1.47a56.26,56.26,0,0,1,4.41-11.55,31.67,31.67,0,0,1,4-5.85C119.67,140.69,119.44,141.07,119.22,141.46ZM109.61,153c0,.06,0,.12,0,.17s0-.2.05-.31A.71.71,0,0,0,109.61,153ZM106,145c0,.79,0,1.6,0,2.39v.66c-.06-.28-.11-.56-.18-.84,0-.07,0-.15,0-.22,0-1,0-2.06.08-3.08C105.86,144.3,105.94,144.67,106,145Zm-1.18-1.81c-.37-1.45-.76-2.91-1.19-4.35v-.05c-.06-1.64-.09-3.27-.1-4.87.54,2,1,4,1.46,6v0C104.92,141,104.86,142.11,104.82,143.22ZM99,132.43a47,47,0,0,0-.2,5.93c-.37-.38-.76-.74-1.15-1.09-.61-3-1.16-5.81-1.61-8.62-.08-.45-.14-.89-.21-1.33.29.37.59.73.87,1.11a41.74,41.74,0,0,1,2.34,3.7C99.06,132.23,99,132.33,99,132.43Zm-.15,7.49c0,.65.07,1.31.12,2s.11,1.34.17,2c-.13-.57-.27-1.15-.41-1.74-.25-1.09-.48-2.15-.71-3.2C98.33,139.29,98.61,139.6,98.88,139.92Zm-1.09,2.5c.7,3,1.37,5.71,2,8.23-.37-.57-.76-1.12-1.15-1.64-.47-.91-1-1.82-1.45-2.72-1.35-3.83-2.43-7.08-3.4-10.15l-.12-.42a18.9,18.9,0,0,1,2.55,1.65l.51.44C97.09,139.32,97.42,140.85,97.79,142.42Zm-4.91-6c.54,1.71,1.11,3.48,1.75,5.37l-.29-.48c-1.18-1.9-2.43-3.77-3.72-5.6l-.55-1.56q1.26.42,2.4.93C92.61,135.55,92.74,136,92.88,136.44Zm-6.14-4.18c-1.14-.22-2.34-.38-3.56-.51-.92-2.21-1.8-4.48-2.64-6.79.27.29.54.57.8.86,1.89,2.05,3.72,4.22,5.46,6.46Zm-.92,8.46c.79,1.42,1.59,2.84,2.39,4.23,1.37,2.64,2.85,5.34,4.43,8.05,1.78,3,3.59,5.9,5.38,8.51.39.57.78,1.12,1.18,1.68-2.19-2.38-4.39-4.77-6.61-7.12l-2.24-2.37c-2.2-2.8-4.22-5.64-6-8.44q-1.93-3-3.71-6.26A45.45,45.45,0,0,1,85.82,140.72Zm-2.66,15c-2.6-2.31-5.09-4.72-7.43-7.16-2-2.07-3.87-4.18-5.63-6.28,2.43,1.55,4.91,3.21,7.49,5,1.74,1.23,3.48,2.52,5.22,3.83C84.88,153,87,154.87,89,156.76l9.9,9.1c-3.08-2.14-6.32-4.18-9.71-6.08-1.21-.69-2.45-1.35-3.69-2C84.71,157.1,83.92,156.41,83.16,155.73Zm.32-9.93c.49.76,1,1.52,1.51,2.28l-.43-.45c-.58-.75-1.15-1.49-1.69-2.21-1.47-2-3.31-4.46-5.15-7.11.53.12,1.06.23,1.57.36C80.61,141.13,82,143.52,83.48,145.8ZM76.3,138c.92,1.34,1.84,2.64,2.73,3.87l-1.1-1.14-2.87-2.94Zm.91,3.43c2.3,2.37,4.48,4.63,6.6,6.84,1.5,1.94,3.16,4,5.11,6.3l.25.29q-2.83-2.32-5.72-4.51l-2.83-2.52-3.77-3.37c-2.74-2.46-5.49-4.87-8.53-7.54,1.74.16,3.44.34,5.06.59Zm-1.49,3.36q-3.87-2.64-7.55-4.88c-.83-1.06-1.65-2.12-2.43-3.17l.9.05C69.92,139.67,72.83,142.23,75.72,144.81Zm-11.27-8.13c.44.61.9,1.22,1.36,1.83-.87-.51-1.73-1-2.59-1.5l-.77-.41c.49,0,1,0,1.45.05C64.09,136.65,64.27,136.67,64.45,136.68Zm33.31,21.78c-2.46-3.71-4.85-7.53-7.11-11.33-.52-.87-1-1.76-1.56-2.66l-.5-1c-.34-.66-.66-1.35-1-2l.13.05A29.18,29.18,0,0,1,93,144.7c1.79,4.4,3.57,8.42,5.42,12.23,1.52,3.12,3.16,6.33,4.91,9.57C101.3,163.68,99.47,161,97.76,158.46Zm30-13.65c.26-.3.54-.6.81-.9.53-.38,1.06-.74,1.6-1.07a21.67,21.67,0,0,1,8.93-3.17c.29.39.57.79.83,1.16a35.63,35.63,0,0,0-12.43,4.76c-.33.2-.65.42-1,.64C126.94,145.75,127.35,145.27,127.76,144.81Zm14.91-3.39.23,0a49.6,49.6,0,0,1,7.48-.25,41.51,41.51,0,0,1,3.93,1.59c-1,.71-2.05,1.43-3.11,2.15l-1.56,1.07c-.92.63-1.85,1.28-2.79,1.91l-1.18.11c-1-1.64-2.11-3.53-3.38-5.45C142.42,142.15,142.55,141.78,142.67,141.42Zm7.53,5.35,1.57-1.08c1.22-.83,2.43-1.67,3.59-2.48,1.45.72,2.94,1.53,4.48,2.46.56.34,1.12.7,1.68,1.06l-1.37.86c-2.68-.09-5.33-.1-7.9,0-1.19,0-2.33.1-3.45.16Zm12.24.57.58.38h-.27l-.84,0Zm14-9.27,0,0,.07.07Zm-5.36-6.13q3.54-2.59,7.06-5.22c2.22,1.26,4.47,2.64,6.74,4.1l0,0c-2.72,2-5.54,4-8.28,5.91Q173.86,134.26,171.11,131.94Zm5.21-7.38c-.64-.35-1.27-.67-1.9-1,1.89,0,3.84.15,5.85.32l-2.18,1.65C177.5,125.2,176.91,124.87,176.32,124.56Zm-.47.88,1.36.75c-2.29,1.71-4.59,3.4-6.88,5.09-3-2.52-6-4.76-8.92-6.81h0q3.18-.52,6.57-.75c1.38-.09,2.8-.13,4.23-.14C173.4,124.15,174.6,124.77,175.85,125.44Zm-7.93-2.73c-1.7.11-3.36.3-5,.53l3.1-2.48c1.38.57,2.77,1.17,4.21,1.85C169.47,122.64,168.69,122.66,167.92,122.71Zm-13.36-2.62-.14-.08.47-.16Zm-.88.66c-1,.73-2,1.46-2.93,2.2-2.9,2.23-5.72,4.42-8.45,6.68l-1.2,1a43.92,43.92,0,0,0-6.18.56,61.33,61.33,0,0,1,6.67-5,59.32,59.32,0,0,1,9.71-5c.62-.26,1.25-.49,1.88-.73Zm-2.75-.49a60.59,60.59,0,0,0-9.88,5.12,63,63,0,0,0-7.88,6l0,0c1.46-1.92,3.08-4,5.05-6.4,2.3-2.84,4.69-5.56,6.94-8.1l.12-.13c.52.19,1.06.4,1.6.63a54.64,54.64,0,0,1,5.18,2.45C151.66,120,151.29,120.11,150.93,120.26Zm-7.08-3.93H144l.23.09c-2.21,2.49-4.55,5.16-6.81,8-2,2.42-3.58,4.48-5,6.39a16.91,16.91,0,0,0-1.89-1.28,81.35,81.35,0,0,1,5.6-6.45A51.7,51.7,0,0,1,143.85,116.33Zm-12.09,15.22-.29.38-.16,0a26.33,26.33,0,0,0-3.71,1.34c.76-1.06,1.51-2.07,2.25-3A15.52,15.52,0,0,1,131.76,131.55ZM110.64,142c0-.8,0-1.6-.07-2.4-.09-1.89-.23-3.79-.39-5.71A79,79,0,0,1,115,121.09c-.87,4.33-1.71,8.82-2.52,13.4C111.84,136.91,111.22,139.43,110.64,142Zm4.22-22.89a80.73,80.73,0,0,0-4.94,12.14c0-.37-.07-.75-.11-1.12l.06-.28c.73-3.19,1.62-6.36,2.65-9.44a89,89,0,0,1,3.65-9.25c.53-1.13,1.09-2.25,1.68-3.37-.74,3.29-1.44,6.49-2.09,9.63C115.46,118,115.14,118.57,114.86,119.14Zm-5.74,14.26c0,.14,0,.29,0,.43-.12.44-.25.87-.36,1.31l.06-.46C109,134.25,109,133.82,109.12,133.4Zm-6.69-3.33.09.33c0,.78,0,1.55,0,2.3s0,1.78,0,2.67c-.65-2-1.34-3.88-2.08-5.76.22-1.17.47-2.31.75-3.41C101.63,127.5,102.05,128.79,102.43,130.07Zm-8.08-6a30.08,30.08,0,0,0-4.47-3.81c-.23-.16-.48-.3-.72-.45-.68-2.66-1.3-5.25-1.84-7.57-.4-1.69-.79-3.46-1.19-5.4,1.21,1.42,2.37,2.89,3.46,4.41,1.34,1.86,2.63,3.88,3.86,6C93.7,119.41,94,121.66,94.35,124.07Zm.26,1.75c.15,1,.3,2,.47,3,.4,2.44.86,4.92,1.38,7.47a20.15,20.15,0,0,0-3.17-1.9c-1-3.28-2-6.73-3.05-10.49-.24-.88-.48-1.76-.71-2.64A29.06,29.06,0,0,1,94.61,125.82Zm-5.33-1.66c1,3.45,1.88,6.64,2.8,9.68a23.91,23.91,0,0,0-2.43-.86c-.37-1.1-.73-2.19-1.07-3.26-1.24-3.91-2.27-7.49-3.13-10.86a29.78,29.78,0,0,1,2.84,1.59C88.61,121.68,88.94,122.92,89.28,124.16Zm-3.5-.28-.73-1.94c-.5-1.35-1-2.64-1.44-3.9l.68.29C84.74,120.12,85.23,122,85.78,123.88Zm-6.51.52c.78,2.19,1.61,4.35,2.46,6.46-1.23-2.43-2.43-4.87-3.57-7.31-.3-.65-.59-1.31-.89-2l1.58,1.6C79,123.59,79.12,124,79.27,124.4Zm-2-.43c1.18,2.54,2.43,5.07,3.71,7.6-1.29-.07-2.65-.08-4.06-.06-.61-1.4-1.21-2.83-1.78-4.31-.11-.28-.22-.58-.35-.9a2.22,2.22,0,0,0,.25-.42,3.52,3.52,0,0,0-.15-2.95,6,6,0,0,0-2-2.19c-.45-1.48-.87-3-1.28-4.48.81.71,1.6,1.43,2.37,2.14l1.36,1.29C76,121.14,76.6,122.57,77.26,124Zm-6.59,3.18a8,8,0,0,0,1.7.22,3.73,3.73,0,0,0,1-.13A2.61,2.61,0,0,0,74,127c.06.19.13.37.2.55.53,1.36,1.08,2.68,1.64,4l-.86,0-1.67.11q-1.48-2.29-2.74-4.41l-.1-.16A1.66,1.66,0,0,1,70.67,127.15Zm4.35,5.4,1.24,0q1,2.16,2,4.16l.44.82c-.58-.13-1.17-.26-1.78-.38l-.48-.71c-.89-1.32-1.71-2.57-2.5-3.79Zm.5,4.33-1.66-.29c-1.24-1.25-2.44-2.47-3.62-3.64.86-.1,1.71-.18,2.54-.25Q74.05,134.7,75.52,136.88Zm-3.29-.51c-1.67-.22-3.39-.41-5.19-.54l-1.81-1.57-.58-.51q2.23-.39,4.32-.66Zm-8.54-3.47-1.52-1.32a79.07,79.07,0,0,1-4.14-7.2c-.58-1.16-1.12-2.35-1.63-3.54,3.19,3.06,6.27,6.06,9.06,8.79l2.62,2.58C66.66,132.4,65.2,132.63,63.69,132.9Zm-1,1.2c.35.52.7,1,1.06,1.54-1.05,0-2.12-.07-3.19-.08-.45-.24-.89-.49-1.34-.72C60.35,134.57,61.51,134.32,62.64,134.1Zm-5.23,1.46-1.35,0c.38-.1.76-.21,1.14-.3ZM63,146.71c2.89,1.6,5.72,3.2,8.47,4.77-3.51-1.35-7-2.52-10.39-3.49-1.62-1.43-3.17-2.9-4.63-4.38-.3-.3-.58-.62-.87-.93C58.11,144,60.57,145.36,63,146.71Zm24.82,14.83-.15-.07c-1.72-1.14-3.43-2.31-5.1-3.53,2,1.15,3.92,2.33,5.86,3.52l1.1.86C89,162.06,88.39,161.78,87.82,161.54Zm33.5-8.76c.84-1.14,1.69-2.24,2.55-3.32a36.9,36.9,0,0,1,4.16-3A34.6,34.6,0,0,1,139.31,142c-1.29,1.16-2.52,2.28-3.72,3.38l-2.53,2.34c-.54.08-1.07.17-1.6.28A24.43,24.43,0,0,0,121.13,153Zm14.94-6.69c1.44-1.32,2.93-2.67,4.5-4.07l.42.62c-.27.71-.55,1.41-.85,2.11-.38.89-.79,1.76-1.22,2.63a32.93,32.93,0,0,0-4.36.11Zm5-.94c.21-.5.4-1,.6-1.49,1,1.49,1.85,3,2.64,4.26q-2.24-.34-4.29-.48C140.56,146.68,140.92,145.92,141.25,145.15Zm19.12,3.47c.78,0,1.55,0,2.33.08l1.92.15,1.09.8q-3.5-.12-7,0Zm6.13.37c2.28.18,4.53.41,6.71.7l.2,0-.69.41c-1.2-.13-2.4-.24-3.63-.32-.53,0-1.07-.05-1.6-.08ZM169,150.8c.76,0,1.5.14,2.25.2l-1.28.74-1.16-1Zm14.84-7,.48-.36h0l0,.09.06.06s.05,0,.07.06l.08.05.1,0h.08l0,0-.55.39Zm9.89-9.32-.16.25-.13.07-1.32,1.11c-1,.85-2,1.65-2.92,2.42l-1.25.73-.59.33a13.64,13.64,0,0,0-1.84,1.22,3.49,3.49,0,0,0-.93,1.11c-1.75-.86-3.54-1.69-5.35-2.47l-1.92-1.8c2.69-1.88,5.45-3.82,8.12-5.81l.35-.25.13.08c.83.55,1.65,1.09,2.46,1.64a.5.5,0,0,0,.7-.13.51.51,0,0,0-.14-.7l-2.3-1.53,2.68-2c1.71,1.69,3.35,3.42,4.87,5.07C194.06,134,193.9,134.26,193.75,134.49Zm-8-4.31c-2.25-1.47-4.5-2.84-6.72-4.11l2.72-2c1,.1,2,.22,3,.35q1.88,1.68,3.91,3.67Zm-16-13.59c-1.23,1-2.5,2-3.86,3l-.75-.3c-1.3-.51-2.55-1-3.78-1.36l.53-.14a83,83,0,0,1,8.24-1.51ZM157.45,118c-1.43.43-2.83.88-4.19,1.38a61.13,61.13,0,0,0-6-2.9l-.57-.22a39.46,39.46,0,0,1,6.89.68c1.32.25,2.68.58,4.06,1Zm-15.62-1.43a54.79,54.79,0,0,0-6.48,5.77,83.48,83.48,0,0,0-5.78,6.68l-.45-.21,0,0c.7-.86,1.41-1.71,2.12-2.52,2.24-2.55,4.66-5,7.18-7.38.75-.7,1.55-1.41,2.37-2.13Zm-4.14,1.59c-2.54,2.37-5,4.88-7.24,7.45-.8.91-1.59,1.86-2.38,2.84a6.53,6.53,0,0,0-4.22.16q.89-1.19,1.8-2.28a31.18,31.18,0,0,1,8-6.93,22.61,22.61,0,0,1,5-2.12Zm-20.26,14.6c.37-.83.73-1.63,1.09-2.41-.4.92-.79,1.83-1.17,2.74Zm-1-.33c-.08.2-.17.39-.26.59l.32-.81Zm.23-14.62q1.33-2.52,2.85-5c-1.06,2.76-2,5.34-2.83,7.8-.51,1.51-1,3.07-1.51,4.64C115.71,122.71,116.21,120.22,116.71,117.79Zm-8.78,16.39c0,.11,0,.23-.05.35-.19,1.06-.38,2.15-.55,3.26,0-.72,0-1.42,0-2.12.22-3.59.49-6.9.83-10.06v-.11c.18,1.22.35,2.45.49,3.69C108.42,130.84,108.16,132.51,107.93,134.18Zm-6.75-11.71-.09.34c-.06-.15-.11-.29-.16-.44Zm-2.28-.77c.08,1.71.17,3.26.26,4.72-1-2.42-2.17-4.77-3.36-7-.45-.84-.91-1.67-1.38-2.48-.1-.88-.19-1.75-.27-2.6-.21-2.1-.37-4.16-.52-6.21.61,1.15,1.21,2.34,1.82,3.61,1.17,2.45,2.3,5.07,3.35,7.78C98.83,120.26,98.86,121,98.9,121.7Zm-5.75-7.28c0,.15,0,.3,0,.45q-1.36-2.2-2.8-4.21a67,67,0,0,0-4.68-5.8c-.28-1.38-.56-2.83-.85-4.39-.39-2-.74-4.12-1.07-6.18.46.46.93.93,1.36,1.4a50.42,50.42,0,0,1,5.6,7.42c.58.93,1.16,1.92,1.73,2.93Q92.75,110.17,93.15,114.42Zm-9.27-13.76.55,2.81c-.21-.22-.41-.45-.62-.66-.6-.62-1.22-1.22-1.85-1.82-.43-3.18-.72-6.21-.92-9.17.55.45,1.07.91,1.58,1.37C83,95.68,83.41,98.17,83.88,100.66Zm-.79,2.85c.58.59,1.15,1.19,1.7,1.81.53,2.62,1,5,1.55,7.15.48,2,1,4.26,1.59,6.57-.88-.51-1.82-1-2.78-1.43-.16-.64-.32-1.28-.47-1.91-1.09-4.71-1.9-9-2.49-13.09C82.49,102.91,82.8,103.21,83.09,103.51Zm-2.08-2c.61,4.49,1.49,9.21,2.7,14.44.09.39.19.79.29,1.18-.29-.12-.56-.25-.85-.36-.9-2.48-1.74-4.84-2.53-7.1-1.36-3.91-2.62-7.75-3.77-11.39-.06-.18-.11-.35-.16-.53,1.49,1.2,2.94,2.44,4.32,3.74Zm-4.5,14.32q.73,2.55,1.6,5.21c-.63-.64-1.29-1.28-2-1.92-.53-1.21-1.07-2.43-1.6-3.69C75.22,115.53,75.87,115.67,76.51,115.81Zm-2.22,1.54c-.86-.8-1.75-1.59-2.66-2.38.59.07,1.17.15,1.75.24C73.68,115.93,74,116.64,74.29,117.35Zm-4.05-2.27c.43,1.66.9,3.32,1.39,5a10.06,10.06,0,0,0-1.87-.65,7.44,7.44,0,0,0-3.63,0c-.91-1.71-1.74-3.36-2.53-5,2.16,0,4.25.11,6.25.3Zm-16.87.5c.15.49.33,1,.49,1.46-.65-.63-1.31-1.25-2-1.86l1.3-.17C53.26,115.2,53.31,115.4,53.37,115.58Zm-2.7-.19,4,3.76a59.37,59.37,0,0,0,2.5,5.68c.75,1.49,1.58,3,2.47,4.52-2.21-1.94-4.46-3.9-6.72-5.81l-4.34-3.67c-.63-1.28-1.24-2.59-1.8-3.92l1.38-.24c.83-.14,1.66-.26,2.48-.37Zm.94,20.39-.32,0-1.66.12c-1.6-2-3.15-4.07-4.71-6.32.65.24,1.29.48,1.92.73,3.11,1.21,6.26,2.63,9.42,4.18C54.73,134.9,53.18,135.32,51.61,135.78Zm-4.38,1.37,0,0h.12Zm-.09,1.08,2.13,1.1,3.57,1.89c.95,1.05,1.91,2.09,2.9,3.09s2.11,2.09,3.22,3.12c-.79-.21-1.59-.43-2.38-.62-2.26-.54-4.52-1-6.76-1.3-1.46-2.11-2.9-4.34-4.32-6.72Zm8.52,16.34c.63.7,1.26,1.36,1.89,2-1.22-.68-2.4-1.36-3.55-2C54.56,154.54,55.12,154.54,55.66,154.57ZM61,158.42c-1.29-1.14-2.56-2.39-3.82-3.73A85.41,85.41,0,0,1,71,156.92c2.54,1.73,5.23,3.4,8.24,5.09l1.22.67q-3.64-1-7.37-1.76c-3.9-.84-7.58-1.51-11.19-2ZM131.67,149h.05l-2.06,1.93a36.38,36.38,0,0,0-7.66,3.24c-.72.42-1.41.87-2.09,1.35A24.14,24.14,0,0,1,131.67,149Zm1.85-.32a31.21,31.21,0,0,1,5.1-.26l-.26.5c-2.36.39-4.55.86-6.61,1.41Zm6.19-.22c.4,0,.8,0,1.21.08l-1.34.19C139.63,148.59,139.67,148.5,139.71,148.41Zm5.92,1.48.57,1c-.94.15-1.86.32-2.78.5Zm.84-.56,0,0,.76.14c1.12.24,2.25.52,3.39.83-1.15.13-2.28.28-3.4.45ZM153,151h.12l.86.28q-2.57,1.51-4.89,2.84l-1.35-2.47C149.5,151.4,151.25,151.17,153,151Zm3.85-.28c3.43-.18,6.85-.18,10.23,0,.65.51,1.29,1,1.94,1.56l-1.61.9c-.9.49-1.83,1-2.77,1.47-.6-.3-1.18-.61-1.79-.9q-3.27-1.53-6.51-2.7Zm11,3.32.74-.42-.82.53c-.57.37-1.16.77-1.75,1.18l-.31-.15Zm17-9.15.43-.31,1.11-.81,0,0q2.81,1.45,5.47,3.06c-.93.36-1.85.73-2.72,1.1l-1.05.44Q186.57,146.6,184.91,144.9Zm1.37-2.36-.46-.22q1.92-1.48,4-3.16l.45-.25a12.19,12.19,0,0,0,3.74-3c.23-.3.42-.61.62-.93.1-.15.21-.3.3-.45,1.18,1.29,2.26,2.51,3.22,3.59l1.52,1.74.34.39-5.86,1c-1.1.19-2.21.37-3.31.54l-1.52.25C188.29,142.26,187.29,142.4,186.28,142.54Zm14.84-2.46-.73-.83c-.5-.59-1-1.17-1.52-1.75-1-1.13-2.13-2.4-3.35-3.74a12.62,12.62,0,0,1,1.32-1.32c.86-.76,1.79-1.48,2.7-2.18l2.62-2c1.34.41,2.69.83,4.05,1.3a120.12,120.12,0,0,1,12,4.81c.6.27,1.19.56,1.78.85a3,3,0,0,0-.42,0,8.53,8.53,0,0,0-1.13.3c-.89.26-1.76.56-2.63.86-.67.23-1.35.46-2,.67-1.53.49-3.12.94-4.71,1.33s-3.06.72-4.62,1l-.27.06Zm-9.31-14.49c-.79.62-1.58,1.24-2.38,1.84-1-1-2-1.92-3-2.8C188.22,124.9,190,125.22,191.81,125.59Zm-8.42-2.39-.48,0,.22-.17Zm.48-7.76q3.54,0,7.07.27-1.92,1.5-3.85,3l-3.93,3q-2.13-1.8-4.18-3.3c-1.33-1-2.63-1.84-3.91-2.63C178,115.54,180.91,115.42,183.87,115.44ZM167.23,113a40,40,0,0,1,4.54,2.06l-.1.08a85.69,85.69,0,0,0-10,1.74l-1.44.37c1.92-1.4,3.86-2.77,5.81-4.15l.49-.34Zm-10.69-1.64a23.74,23.74,0,0,1,8.78,1c-2,1.39-3.93,2.78-5.88,4.2l-.8.58c-1.68-.47-3.32-.87-4.92-1.17a40,40,0,0,0-7.11-.7c.38-.42.76-.84,1.15-1.25A23.65,23.65,0,0,1,156.54,111.32ZM188.39,72a10.88,10.88,0,0,1,1.73-5.45,15.48,15.48,0,0,1,2-2.2l.5-.49c.95-.92,1.89-1.94,2.89-3.12.3-.35.59-.71.88-1.06.62-.75,1.26-1.53,1.93-2.25l.08-.09a5.88,5.88,0,0,1,1.77-1.48c.36-.16.5-.05.56,0,.65.51.65,3.05.47,4.21A24.78,24.78,0,0,1,198.59,67l-.19.38a42.82,42.82,0,0,1-4.32,7l-.15.2c-.63.84-2.56,3.39-3.93,3.43a1.07,1.07,0,0,1-.85-.46,2.31,2.31,0,0,1-.18-.23h0s0,0,0,0a.32.32,0,0,0,0-.09A10.12,10.12,0,0,1,188.39,72Zm-7.6,9.6c.39-.42,1-1,1.55-.89a1.67,1.67,0,0,1,.81.37.75.75,0,0,0,.06.13.51.51,0,0,0,.23.16,2.62,2.62,0,0,1,.43.68,2.58,2.58,0,0,1-.18,2.45,10.38,10.38,0,0,1-1.89,1.78,11.37,11.37,0,0,0-2.08,2,12.71,12.71,0,0,0-1.52,2.92A13.27,13.27,0,0,1,177,93.54,4.15,4.15,0,0,1,175,95.19a4.41,4.41,0,0,1-1.81.3H173a1.53,1.53,0,0,1-.57-.17.53.53,0,0,1-.16-.13c-.29-.38.1-1.22.28-1.62a24.94,24.94,0,0,1,3.15-4.75l1.06-1.39c.32-.43.62-.88.91-1.34l0,0a.51.51,0,0,0,.17-.3l.49-.78A23.16,23.16,0,0,1,180.79,81.58Zm-20.79,20c2.33-2.24,4.82-4.52,7.61-7,2.58-2.27,4.89-4.24,7.07-6a24.33,24.33,0,0,0-3,4.59c-.27.59-.82,1.8-.15,2.66h0a1.1,1.1,0,0,0,.23.2l-1,.48c-3.17,1.45-6.07,2.9-8.84,4.43-1,.56-2,1.12-3,1.67Zm-14,10.88c1.78-1.39,3.72-2.79,5.86-4.24l-.17.18c-1.48,1.53-3,3.14-4.54,4.79-.53.28-1.06.57-1.59.88s-1.21.75-1.81,1.15c-.3-.1-.58-.18-.87-.26C143.87,114.12,144.9,113.29,146,112.44Zm-10.93,2.36a23.11,23.11,0,0,1,5.68.62l-.45.39a24.18,24.18,0,0,0-7.12,2.7,31.28,31.28,0,0,0-7.56,6.33c1-1.36,1.94-2.68,3-3.93a68.69,68.69,0,0,1,5.56-6C134.45,114.84,134.76,114.81,135.07,114.8Zm-2.59.3a69.22,69.22,0,0,0-4.68,5.18A79.16,79.16,0,0,0,120.52,131a20,20,0,0,0-2.19,2.89c-.25.38-.49.78-.72,1.19,1.35-3.33,2.86-6.76,4.51-10.2,1-2.05,2-4.12,3.13-6.21A15.76,15.76,0,0,1,132.48,115.1Zm-12.72,10.42c-.33.64-.66,1.3-1,2,0-.11,0-.22.08-.33C119.15,126.59,119.45,126,119.76,125.52Zm.43-7.28-.28,1c-.68,2.49-1.35,5-2,7.54-.37.72-.74,1.46-1.1,2.24a80,80,0,0,0-4.56,13.09l0,.05c.39-2.44.76-4.72,1.15-6.92,0-.19.07-.37.1-.56l.3-1.14c1.23-4.36,2.54-8.62,3.9-12.64,1.19-3.52,2.58-7.27,4.27-11.48.11-.29.23-.57.35-.86l1-1.33C122.19,110.93,121.18,114.63,120.19,118.24Zm10.19-34.5c-.75,2.41-1.5,4.8-2.23,7.19-.73.85-1.44,1.69-2.11,2.54a89.9,89.9,0,0,0-5.7,8l.3-1.28c1.2-5,2.59-10.5,4.25-16.67l.66-1.06a.27.27,0,0,1,.07-.08A9,9,0,0,0,130,83.48h.12l.36,0Zm.07-6.73c1.09-1.14,2.2-2.27,3.25-3.34-.54,1.6-1.06,3.15-1.55,4.63A8.3,8.3,0,0,0,130.45,77Zm-.72-16a15.46,15.46,0,0,1,1.45-1.33c.32-.26.64-.53.94-.81a31.54,31.54,0,0,0,2.25-2.39l.13-.15c.22-.24.43-.5.66-.77a8.47,8.47,0,0,1,2.71-2.48.55.55,0,0,1,.76.13,4.1,4.1,0,0,1,.59,2.35,11.69,11.69,0,0,1-.59,3.89c-.11.29-.21.58-.32.88a11.12,11.12,0,0,1-.46,1.07,14,14,0,0,1-3.26,4.38A4.81,4.81,0,0,1,132,67.1a2.18,2.18,0,0,1-.52,0,2.68,2.68,0,0,1-1.65-1.23l-.07-.11a5.71,5.71,0,0,1-.82-2.2A3,3,0,0,1,129.73,61Zm-.61,7.7.48-1.58a3.38,3.38,0,0,0,1.72,1h0a2.92,2.92,0,0,0,.51,0h.27a5.54,5.54,0,0,0,3.14-1.57,13.15,13.15,0,0,0,1.41-1.47c-.05.14-.09.27-.14.42-.7,2-1.4,4-2.08,6-1.52,1.53-3.26,3.29-5,5.06a3.36,3.36,0,0,0-2.73.25C127.53,74.11,128.31,71.4,129.12,68.69Zm-3,9.78c1.27-1.17,2.3-1.38,3.53-.74a7,7,0,0,1,2.16,1.77.48.48,0,0,0,.17.23,2.08,2.08,0,0,1,.39,1.4c-.21,1.26-2,1.35-2.32,1.35A7.76,7.76,0,0,1,126,81.39a.73.73,0,0,0-.08-.09l-.07,0,0-.05-.11,0a2.61,2.61,0,0,1-.42-.46,1.74,1.74,0,0,1-.11-.18C124.88,80,125.24,79.31,126.17,78.47ZM115.41,98.35a69,69,0,0,1,3.79-7.09A69.08,69.08,0,0,0,116,98.9,156.5,156.5,0,0,0,111.25,116c-.73,3.22-1.39,6.52-2,9.87-.19-1.38-.41-2.73-.64-4.07.19-1.54.38-3,.59-4.5.17-.77.33-1.55.52-2.31A91.6,91.6,0,0,1,115.41,98.35Zm9.43-46.77.08-.25c.12-.43.25-.86.38-1.29.28-.9.56-1.83.8-2.76.11-.46.2-.93.29-1.4a16.68,16.68,0,0,1,.47-2,4.91,4.91,0,0,1,1.92-2.53c.36-.26,1.44-1,2.15-.85.1,0,.3.06.27.9a17.72,17.72,0,0,1-.54,3.38,22.55,22.55,0,0,0-.55,3.22c0,.54,0,1.08,0,1.61a.53.53,0,0,0,0,.28,1.55,1.55,0,0,0,0,.22,11,11,0,0,1-.24,3.46,4.66,4.66,0,0,1-1.38,2.12,8.08,8.08,0,0,1-1.88,1.37.52.52,0,0,0-.31.14,3.26,3.26,0,0,1-1.25.29l-.29,0c-.42-.1-.59-.62-.65-1a5.86,5.86,0,0,1-.06-.94.45.45,0,0,0,0-.23A16.67,16.67,0,0,1,124.84,51.58Zm-7.08,15.77c1.57-3.2,3.37-6.58,5.48-10.32a1.85,1.85,0,0,0,1.3,1.44h0a2.44,2.44,0,0,0,.48.05h0a4.21,4.21,0,0,0,.62-.05c-.2.42-.4.84-.59,1.27-1.62,3.49-3.16,7.08-4.58,10.68s-2.76,7.24-4,10.87-2.23,7-3.12,10.38c-1.07,4-2,7.72-2.74,11.39s-1.43,7.29-2,11.15c-.15,1-.29,1.91-.43,2.88,0-.21,0-.43,0-.66s0-.55.05-.83c.32-4.28.69-8.89,1.19-13.58.58-5.3,1.12-9.67,1.7-13.74.44-3.06.94-6.19,1.47-9.35.12-.3.23-.61.35-.91C114.37,74.57,115.92,71.08,117.76,67.35Zm-11.27,32.89c.78-3.95,1.69-7.72,2.72-11.19q.77-2.58,1.61-5.07c-.22,1.4-.43,2.78-.63,4.15-.58,4.09-1.13,8.47-1.7,13.78-.42,3.87-.74,7.67-1,11.28a7,7,0,0,0-1.13-2c-.34-1.26-.69-2.5-1.06-3.73Q105.84,103.6,106.49,100.24ZM102.43,102c.64,1.79,1.25,3.65,1.83,5.56-.19,1.3-.37,2.63-.54,4-.06.1-.11.2-.16.3-.19.34-.35.7-.51,1a9.23,9.23,0,0,1-.69,1.37,5.82,5.82,0,0,1-1,1.16,9.93,9.93,0,0,0-1,1.06,5.34,5.34,0,0,0-.62,1.14c0-1.67-.06-3.47-.06-5.46,0-3.2,0-6.15.18-9,.11-2.35.24-4.55.38-6.68Q101.44,99.2,102.43,102Zm-8.7-18.15c1.67,2.77,3.29,5.75,4.79,8.87.3.62.59,1.24.88,1.86-.22,2.7-.39,5.52-.53,8.57-.13,2.89-.19,5.86-.18,9.07,0,1.6,0,3.08,0,4.46-.77-1.84-1.56-3.63-2.38-5.34-.95-2-1.91-3.83-2.87-5.55-.11-1.94-.21-3.86-.26-5.73l0-1.46a3.28,3.28,0,0,0,1.76-2.71,6.09,6.09,0,0,0-.36-2.39,10.65,10.65,0,0,1-.27-1.08,6.8,6.8,0,0,1,0-1.69,8.43,8.43,0,0,0,0-1.74,2.64,2.64,0,0,0-.12-.55h0a2.32,2.32,0,0,0-1-1.16c0-1.4.1-2.73.16-4C93.48,83.42,93.61,83.61,93.73,83.81Zm-1.3,4.13.08,0a1.24,1.24,0,0,1,.7.75,1.51,1.51,0,0,1,.08.35,7.22,7.22,0,0,1,0,1.54,7.82,7.82,0,0,0,0,1.93,12.18,12.18,0,0,0,.3,1.19,5.54,5.54,0,0,1,.33,2c-.08.8-.62,2-1.68,2s-1.38-1.07-1.56-2.59l0-.46A11.22,11.22,0,0,0,90,92.57c-.59-1.62-1.15-3.15.06-4.28a2.36,2.36,0,0,1,2-.45A1.25,1.25,0,0,1,92.43,87.94ZM81.81,67.1c2.45,3,4.54,5.74,6.39,8.33,1.48,2.06,2.88,4.18,4.23,6.33-.08,1.6-.15,3.3-.22,5.09a3.33,3.33,0,0,0-2.81.71c-1.69,1.58-.93,3.67-.31,5.35a9.38,9.38,0,0,1,.56,1.92l.06.44c.16,1.32.4,3.32,2.47,3.46l0,1.32c0,1.25.09,2.51.15,3.79-.26-.42-.51-.85-.77-1.26A51.9,51.9,0,0,0,85.9,95c-.74-.79-1.53-1.56-2.34-2.32-.17-1.15-.36-2.31-.51-3.45-.54-4-1-8.22-1.4-12.55-.14-1.57-.26-3.18-.37-4.87.14-1.55.32-3.13.52-4.72ZM77.72,46.89a7.09,7.09,0,0,1,.49-3.64,14.44,14.44,0,0,0,.51-1.93,5,5,0,0,0-.62-3.16,9.5,9.5,0,0,1-.54-1.44,5.34,5.34,0,0,1,0-2.51A28.27,28.27,0,0,1,79,30c.43-1.06,1-1.63,1.73-1.68.88,0,1.4.83,1.68,1.59a8.56,8.56,0,0,1-.22,5.7l0,.14c-.62,1.88-1.16,3.5-.39,5.55.18.47.37.93.56,1.38a19.35,19.35,0,0,1,1.08,3.1,3.53,3.53,0,0,1,0,2.06A3.3,3.3,0,0,1,81,49.56a2.49,2.49,0,0,1-.72,0A3.4,3.4,0,0,1,77.72,46.89Zm3.09,39.93c-.07-2.68,0-5.35,0-8,.35,3.62.76,7.16,1.21,10.53.1.75.22,1.51.33,2.26-.46-.4-1-.79-1.44-1.18C80.88,89.23,80.84,88,80.81,86.82ZM78,89.47c.69.48,1.36,1,2,1.48.17,2.91.45,5.89.84,9q-2.07-1.89-4.3-3.62l-.36-.27c-1-3.22-1.82-6-2.55-8.66,0-.23,0-.45,0-.67C75.1,87.59,76.57,88.49,78,89.47ZM70,66.81a8.78,8.78,0,0,1,2.51-2.64,6.52,6.52,0,0,1,2.65-1.3c1.4-.19,2.27,1.83,2.79,3.05l.07.16c.76,1.79.68,3-.26,3.62a6,6,0,0,1-3.06.84.58.58,0,0,0-.17-.06.49.49,0,0,0-.27,0,9.24,9.24,0,0,1-2.91-.48l-.43-.17a2.15,2.15,0,0,1-1.2-1.23A2.31,2.31,0,0,1,70,66.81Zm.5,4h0L71,71a10.11,10.11,0,0,0,2.88.53l-.24,2c-.48,4.12-.76,7.3-.91,10.31a.86.86,0,0,0,0,.16c-.9-3.4-1.74-6.77-2.48-10-.28-1.27-.56-2.59-.84-4A3.61,3.61,0,0,0,70.48,70.79ZM67,62.5c.75,4.35,1.5,8.18,2.3,11.7C70,77.56,70.89,81,71.81,84.52l-1.08-.62-3-1.71a.51.51,0,0,0-.68.19.49.49,0,0,0,.19.68l3,1.71,1.93,1.1c.07.28.14.57.22.85s.15.53.22.8c0,2.06,0,4,.09,6-1.5-1-3.06-2-4.71-3l-1.06-.62c-.32-3.49-.53-6.88-.63-10.12-.16-5.21-.14-9.81,0-14,.08-1.82.18-3.53.29-5.17Zm-.65-10.32-.27-1.72a4,4,0,0,0,.59-.07l-.14,1.17-.12,1Zm-9.8-20.13-.22-.38a15.48,15.48,0,0,1-2.16-5A34.24,34.24,0,0,1,53.89,20l0-.47c0-1.12,0-2.25,0-3.35,0-1.35,0-2.74,0-4.1A10.89,10.89,0,0,1,55,7.23,3.85,3.85,0,0,1,57.5,5.51a1.5,1.5,0,0,1,1.31.4,2.93,2.93,0,0,1,.41,2.23c-.06,1-.2,2-.35,3a31.7,31.7,0,0,0-.39,3.93c0,4.05,2.08,7.19,4.13,10.22l.65,1A10.25,10.25,0,0,1,65,30a11.1,11.1,0,0,1-.21,3.66c-.08.48-.16,1-.22,1.44-.3,2.57.84,4.7,1.94,6.77a21,21,0,0,1,1.53,3.3,4,4,0,0,1,.06,3.07,2.49,2.49,0,0,1-1.64,1.12,2.11,2.11,0,0,1-.93,0,4.62,4.62,0,0,1-2.31-1.9l-.17-.2c-.41-.51-.85-1-1.29-1.5a19.74,19.74,0,0,1-2.62-3.45,11.25,11.25,0,0,1-1.1-4.5A13.48,13.48,0,0,0,56.52,32.05Zm7.59,53.31C63,81.08,62,76.65,61.19,72.19s-1.38-8.81-1.73-13.06A126.24,126.24,0,0,1,59,45.87c0-.6,0-1.2.05-1.8a29.08,29.08,0,0,0,2,2.42c.42.49.85,1,1.26,1.47l.16.2A6,6,0,0,0,65,50.31l.31,2c.21,1.33.42,2.7.64,4.06-.26,2.84-.46,5.87-.62,9.26-.19,4.25-.21,8.87,0,14.11.09,3,.29,6.21.58,9.46L65,88.76C64.73,87.65,64.42,86.52,64.11,85.36ZM66,90.46c.07.75.16,1.52.24,2.28-.26-.85-.52-1.72-.78-2.6C65.63,90.24,65.8,90.35,66,90.46Zm2.71,12.79q1.52,4.22,3,7.91c.41,1,.81,2,1.22,3-.64-.09-1.3-.17-2-.24-.57-2.23-1.08-4.47-1.54-6.7C69.16,105.9,68.92,104.58,68.69,103.25Zm-.15,10.4c-1.75-.13-3.57-.2-5.43-.2-1-2.08-1.92-4.11-2.76-6.09,2.09,1.5,4.12,3,6,4.54C67.12,112.48,67.84,113.07,68.54,113.65ZM47.78,69A3.74,3.74,0,0,1,47,66.32a15.66,15.66,0,0,1,.52-2A10.52,10.52,0,0,0,48.14,61,9,9,0,0,0,48,59.76a3.79,3.79,0,0,1,.06-2A2.83,2.83,0,0,1,49.62,56,1.57,1.57,0,0,1,50,56a1.67,1.67,0,0,1,1,.36,4.8,4.8,0,0,1,1.54,1.91c.57,1.28.18,2.86-.17,4.25l-.25,1a16.57,16.57,0,0,0-.56,2.77c0,.31,0,.63,0,1a6.52,6.52,0,0,1-.09,1.35,2.07,2.07,0,0,1-1.5,1.61l-.29,0h-.06A2.72,2.72,0,0,1,47.78,69ZM49.09,82.8a4.28,4.28,0,0,1,1.44-3.38.36.36,0,0,1,.28-.09c.26.07.57.73.74,1.08l.09.2c.16.32.32.65.49,1a13.07,13.07,0,0,1,1.25,3,1.54,1.54,0,0,1,0,1,1,1,0,0,1-.67.51h0a2.59,2.59,0,0,1-1.2,0,1.81,1.81,0,0,1-.31-.09A3.58,3.58,0,0,1,49.09,82.8Zm2.32,13.79c-.08-3,0-6,.09-9.53a3,3,0,0,0,.52.06,3.49,3.49,0,0,0,.44-.05c.75,2.85,1.38,5.08,2,7.16,1.08,3.5,2.31,7,3.66,10.37-2.11-1.44-4.31-2.81-6.54-4.15C51.51,99.2,51.44,97.93,51.41,96.59Zm-10-.58c2.63,1.3,5.24,2.66,7.74,4.1.52.3,1,.62,1.54.93.14,1.86.34,3.64.6,5.36A64.28,64.28,0,0,0,52.92,114l-2,.24q-3.53-3.3-7.12-6.56A80.57,80.57,0,0,1,41.36,96Zm3,13.58,5.27,4.88-1.71.25-1.62.29C45.63,113.24,45,111.43,44.41,109.59Zm1.32,6.54c.31.73.63,1.45,1,2.17l-2.26-1.91Zm-2.55.51,4.57,3.86c.28.57.55,1.14.85,1.7A86.65,86.65,0,0,0,55.45,133c-2.77-1.32-5.52-2.53-8.25-3.59-1.05-.42-2.14-.82-3.25-1.22v0c-1.77-2.62-3.46-5.41-5-8.28l-1.06-2Q40.49,117.2,43.18,116.64ZM22,97.69a2.67,2.67,0,0,0-.18-.23c-.6-1,.87-2.45,1.35-2.86a10.39,10.39,0,0,1,3.1-1.87,3.51,3.51,0,0,1,2.24-.33,1.43,1.43,0,0,1,.78.91,12.49,12.49,0,0,1,.75,4c.07,1.74-.6,2-1.32,2.11a6.62,6.62,0,0,1-1.47,0,.57.57,0,0,0-.26,0,20.27,20.27,0,0,1-2.41-.51A5.28,5.28,0,0,1,22,97.69Zm5.82,2.78.33,0q.33,0,.66,0a3,3,0,0,0,.55-.1l.6,1.79c1.11,3.17,2.32,6.26,3.61,9.17.86,1.94,1.82,3.93,2.84,5.92l-1.63.46-.21-.48C32.28,112,30.07,106.49,27.8,100.47Zm7.37,18.15,1.69-.47c.38.74.77,1.47,1.17,2.2,1.37,2.52,2.84,5,4.36,7.28-1.15-.4-2.34-.79-3.56-1.18C37.55,123.86,36.33,121.24,35.17,118.62Zm7.31,14.88c-1-1.91-2-3.85-3-5.8,1.32.43,2.6.87,3.85,1.31,1.7,2.51,3.38,4.81,5.11,7-.94.08-1.9.18-2.86.28l-2.15-1.11Zm-8,5.43c1.49-.28,3-.54,4.44-.77s3.16-.45,4.68-.63l.42.73c-1.56.55-3.11,1.13-4.62,1.74-1,.38-1.93.78-2.88,1.18C35.79,140.44,35.12,139.69,34.47,138.93Zm1.81,3.44c.79.79,1.6,1.58,2.47,2.36-2.31,0-4.6.16-6.81.37l-.3-.39-.14-.18Q33.86,143.41,36.28,142.37Zm-5.7,2.6c.06.08.13.16.19.25l-.88.09Zm2.1,1.06c2.15-.19,4.37-.31,6.61-.31h.6q1.68,1.46,3.58,2.89c2.18,1.67,4.5,3.28,7,4.86a83.88,83.88,0,0,0-9.53.66A44,44,0,0,1,32.68,146Zm9.46,9a84.37,84.37,0,0,1,9.83-.55c1.67,1,3.39,2.05,5.21,3.06.59.33,1.2.65,1.79,1a102.16,102.16,0,0,0-12.42-.92c-1.2-.61-2.34-1.24-3.42-1.91C42.79,155.44,42.47,155.22,42.14,155Zm15.69,7a81.78,81.78,0,0,1-9.07-3.35c3.1.1,6.45.4,10.28.89l2,.27c.88.75,1.76,1.46,2.66,2.12q1.86,1.37,3.89,2.56C64.06,163.71,60.85,162.89,57.83,162Zm16.25,3.71c-1.12-.18-2.21-.38-3.28-.58a47.5,47.5,0,0,1-5.94-3.58c2.36,1.14,4.73,2.22,7.12,3.22.82.35,1.66.67,2.49,1Zm16.72,2.18c-4.12-.41-8-.88-11.6-1.39-2.32-.84-4.61-1.72-6.83-2.65-2.55-1.07-5.09-2.23-7.6-3.45,2.61.43,5.28.94,8.06,1.54,4,.86,8,1.87,11.83,3,1.09.54,2.19,1.08,3.32,1.6s2,.93,3.13,1.39Zm3.68.35c-.61-.25-1.22-.49-1.8-.74l2.1.77Zm16.13,1.27.31-.53c1.49-2.52,3-5.13,4.61-7.64l.67-1a24.92,24.92,0,0,1,6.3-5.29,33.69,33.69,0,0,1,5.42-2.47l-1.6,1.51c-2.59,2.45-5.1,4.93-7.42,7.24q-1.53,1.51-3,3C113.88,166.07,112.11,167.88,110.61,169.47ZM122.8,159c-.21.13-.4.27-.61.41,1.56-1.54,3.17-3.11,4.82-4.67l3.17-3,1.35-.39c1.94-.53,4-1,6.21-1.37-.61,1.11-1.26,2.18-1.94,3.23A53.53,53.53,0,0,0,122.8,159Zm15-5.3.59-.14-2.84,1.87c.31-.44.62-.89.91-1.34Zm-5.62,6.09c.58-.68,1.13-1.37,1.68-2.06,2.2-1.41,4.4-2.88,6.53-4.3l.87-.58c1.78-.4,3.62-.73,5.5-1,.5.9,1,1.84,1.53,2.81l-1.08.61c-3.22,1.81-6.41,3.5-9.47,5-3.68,1.85-7,3.42-10.24,4.81l-1.7.73A41.64,41.64,0,0,0,132.15,159.78Zm14.55,1.73a135.48,135.48,0,0,0-15.65,3.08l-.12,0c2.29-1.05,4.68-2.19,7.23-3.46,3.07-1.54,6.27-3.24,9.51-5.06l1.06-.6c.38.71.76,1.44,1.15,2.19.25.5.5,1,.76,1.5l.4.79a.49.49,0,0,0,.67.21.5.5,0,0,0,.22-.67l-.4-.78c-.26-.51-.51-1-.77-1.5-.39-.77-.78-1.51-1.16-2.23,1.79-1,3.66-2.12,5.67-3.31q3.57,1.26,7.2,3c.37.17.73.37,1.1.55-2.95,1.49-6.12,3-9.58,4.44-1.12.48-2.25,1-3.38,1.41C149.3,161.19,148,161.34,146.7,161.51Zm7.2-.75.48-.2c3.75-1.61,7.15-3.19,10.31-4.8l.49.24-1.44,1c-1.16.86-2.52,1.89-3.81,3.06-.12.1-.24.22-.36.33Q156.74,160.54,153.9,160.76Zm11.19-.41c-.87,0-1.75,0-2.61,0-.45,0-.91,0-1.36,0,1.09-.95,2.22-1.81,3.21-2.55l1.86-1.34c.9.49,1.78,1,2.65,1.5l-1.61,1C166.47,159.45,165.76,159.9,165.09,160.35ZM163,161.74l-.62.45-1.34.95-.39.27c-.47.33-.95.67-1.48,1a2.81,2.81,0,0,0,.16-.62c0-.16,0-.32,0-.48a3.15,3.15,0,0,1,0-.44,4.34,4.34,0,0,1,.23-.9,2.11,2.11,0,0,1,.34-.52c.83,0,1.66-.06,2.49-.07h1.11Zm10-1.12c-2.08-.13-4.12-.22-6.14-.26l.85-.53c.68-.43,1.38-.85,2.08-1.26C170.94,159.23,172,159.92,173.05,160.62Zm-1.77-4-1.44.81c-.89-.53-1.8-1-2.74-1.55.44-.29.88-.6,1.3-.87.69-.46,1.43-.92,2.23-1.41.79.68,1.58,1.39,2.36,2.11C172.42,156,171.84,156.3,171.28,156.61Zm4.68-2.49-2,1.08c-.8-.74-1.6-1.45-2.4-2.15l1-.61,1.91-1.09c1.83.24,3.62.52,5.36.86l-1.44.71a.66.66,0,0,0-.19.09C177.46,153.38,176.7,153.74,176,154.12Zm7.76-2.06-.82-.2.66-.31c.44.09.87.2,1.31.3Zm6.59.2-.61-.18.32,0h.09Zm30.88,5.05c.62.51,1.26,1,2,1.45l1.69,1.13c.82.55,1.64,1.09,2.44,1.65.48.34,1,.7,1.42,1.06l.59.44a7.64,7.64,0,0,0,2,1.18,7.3,7.3,0,0,0,2.47.33h1.07c.45,0,.89,0,1.34,0a6.43,6.43,0,0,1,3.69,1,7,7,0,0,1,1,.88c-.36-.06-.73-.13-1.08-.21l-.45-.1a12.63,12.63,0,0,0-1.89-.34,20.65,20.65,0,0,0-3.15.05c-.57,0-1.13.08-1.7.09a7.93,7.93,0,0,1-2.06-.18l-.36-.1c-.28-.07-.56-.14-.85-.19a6,6,0,0,0-1.09-.06,24.87,24.87,0,0,0-2.75.3c-.68.11-1.38.21-2.07.26a6.12,6.12,0,0,1-1.91,0,.94.94,0,0,1-.53-.32.55.55,0,0,1-.11-.23.83.83,0,0,0-.12-.37.91.91,0,0,0-1.05-.31h-.08l.28-.12a4.14,4.14,0,0,1,1.9-.38c.66,0,1.33.1,2,.17l.84.09c.27,0,.55.06.86.07a1.13,1.13,0,0,0,.59-.11.6.6,0,0,0,.3-.66,1.13,1.13,0,0,0-.37-.58,8,8,0,0,0-.9-.75c-.48-.37-1-.72-1.46-1.08l-1.1-.81a38.78,38.78,0,0,0-3.48-2.38l-.51-.28a3.18,3.18,0,0,0,.33-.08,1.93,1.93,0,0,0,1.08-.88,2.3,2.3,0,0,0,.22-.58A11.66,11.66,0,0,0,221.19,157.31ZM219.34,155l0,.26h0v0a3.1,3.1,0,0,1-.25,1.18,1,1,0,0,1-.54.42,3.4,3.4,0,0,1-1.68.13,2,2,0,0,1-1-.56,8.08,8.08,0,0,1-1.26-1.47,2.85,2.85,0,0,1-.16-.3l.21,0,.24,0a.28.28,0,0,0,0,.09.52.52,0,0,0,.15.39.51.51,0,0,0,.39.16,1.64,1.64,0,0,0,.66-.2l.68-.31,1.53-.71,1.05-.48A6.23,6.23,0,0,1,219.34,155Zm36.46-44.51a8.86,8.86,0,0,1-.65.9,9,9,0,0,0-.7,1,6.21,6.21,0,0,0-.78,2.19,28.87,28.87,0,0,0-.41,4.75,25.27,25.27,0,0,1-.42,4.72,11.3,11.3,0,0,1-.65,2.13,7.94,7.94,0,0,1-1.12,1.82l-.19.24c-.45.57-.9,1.15-1.33,1.75s-.79,1.17-1.18,1.76l-.54.84c-.76,1.16-1.54,2.36-2.36,3.49a30.9,30.9,0,0,1-3.1,3.65,28.56,28.56,0,0,1-3.6,3,47.17,47.17,0,0,1-4.17,2.64c-1.55.9-3.14,1.67-4.34,2.25s-2.61,1.2-3.83,1.72L221,151.65c-.48.21-1,.44-1.43.66h0a.31.31,0,0,0-.1.05l-1.6.73-1.37.64a.71.71,0,0,0-.08-.15.85.85,0,0,0-.84-.16l-.42.08a.57.57,0,0,0,0-.34.62.62,0,0,0-.6-.37,2.43,2.43,0,0,0-.61.05.62.62,0,0,0,.07-.32.55.55,0,0,0-.23-.42,1.08,1.08,0,0,0-1,0l-.38.09c-.25.06-.5.13-.75.18a2.89,2.89,0,0,1-1.32.07,2.18,2.18,0,0,1-.87-.62,2.44,2.44,0,0,0-1.54-.56,4.34,4.34,0,0,1-1.34-.51l-.31-.17a3.23,3.23,0,0,0-1.74-.4,5.09,5.09,0,0,0-.68.12l-.11,0a.49.49,0,0,0,0-.21.54.54,0,0,0-.26-.36.6.6,0,0,0-.58,0l-.54.27a7.33,7.33,0,0,1-1,.4,6.61,6.61,0,0,1-1.93.31,15.94,15.94,0,0,1-2-.15l-.29,0a11.51,11.51,0,0,0-2.32-.05l-1.38.12c-1,.09-2,.18-2.93.29-.54-.62-1.09-1.22-1.64-1.83l.73-.31c1.08-.45,2.24-.92,3.42-1.36.66.41,1.31.82,1.94,1.24.32.2.63.42.95.63l.2.13a.46.46,0,0,0,.27.09.5.5,0,0,0,.28-.92l-.19-.13-1-.64-1.31-.83h0c1.48-.52,3-1,4.49-1.42l.23-.07a.5.5,0,0,0-.29-1l-.22.07c-1.5.45-3,.91-4.54,1.43l-.76.29c-1.74-1.07-3.52-2.08-5.35-3l1.66-.25,1.51-.24c1.11-.18,2.23-.35,3.33-.55l5.9-1c1.41-.25,2.81-.53,4.22-.81l.27-.06c1.58-.32,3.14-.67,4.66-1s3.22-.85,4.78-1.34l2-.69c.86-.29,1.72-.58,2.59-.85.35-.1.69-.2,1.05-.27a3.94,3.94,0,0,1,1-.07,9.91,9.91,0,0,0,2.31-.31,39,39,0,0,0,4.7-1.35,16.19,16.19,0,0,0,4.32-2.12,10.66,10.66,0,0,0,3.08-3.75,16.46,16.46,0,0,0,1.5-4.47,17.61,17.61,0,0,0,.3-3.27.51.51,0,0,0-.5-.49h0a.49.49,0,0,0-.49.5,17.21,17.21,0,0,1-.28,3.08,15.4,15.4,0,0,1-1.41,4.2,9.67,9.67,0,0,1-2.79,3.4,15.22,15.22,0,0,1-4,2,38.9,38.9,0,0,1-4.58,1.32l-1,.2a.43.43,0,0,0-.2-.2c-1-.49-2-1-3-1.44a124.44,124.44,0,0,0-12.12-4.85c-1.14-.39-2.28-.75-3.4-1.1l1.56-1.22a27.52,27.52,0,0,1,3.71-2.39l.71-.39a22.57,22.57,0,0,0,3.59-2.27,13.42,13.42,0,0,0,2-2.24c.34-.44.69-.9,1.07-1.31a13.66,13.66,0,0,1,3.65-2.69c1.22-.66,2.52-1.25,3.77-1.82l1-.44c1.34-.61,2.73-1.25,4.05-2a24.13,24.13,0,0,0,2.12-1.27A7.07,7.07,0,0,0,232,108a5.37,5.37,0,0,0,.87-2.6,7.61,7.61,0,0,1,.36-1.58,11.67,11.67,0,0,1,2.67-3.52,27.43,27.43,0,0,1,3.6-3.08,16.24,16.24,0,0,1,3.93-2.13,11.53,11.53,0,0,1,4.48-.73,14.77,14.77,0,0,1,4.47,1,17,17,0,0,1,4,2.09,6.24,6.24,0,0,1,1.49,1.44,4,4,0,0,1,.42.76l-.06,0c-.47-.19-.95-.36-1.44-.52h-.11a.4.4,0,0,0-.11,0h0l-.07,0-.1,0-.08.06-.06.06a.53.53,0,0,0-.06.1l0,.06h0a.41.41,0,0,0,0,.11.28.28,0,0,0,0,.09v0l.05.32a5.09,5.09,0,0,0,.12.68c0,.08,0,.16.06.25a1.4,1.4,0,0,1,.09.53l-.14.11-.33.21c-.23.15-.46.29-.69.45a15.91,15.91,0,0,0-1.84,1.44l-.18.17a3.84,3.84,0,0,1-1.26.92l-.16.06a1.73,1.73,0,0,0-.32.11.61.61,0,0,0-.3.2.64.64,0,0,0-.12.46c.08.5.69.59,1,.64l.33,0a1.19,1.19,0,0,1,.7.2l.07.08a1.4,1.4,0,0,0,.53.42,2,2,0,0,0,.74.12h.12c.52,0,1-.06,1.56-.1l.91-.08h.27A17.65,17.65,0,0,1,255.8,110.46Zm3.62-4.79c-.74.11-1.5.16-2.24.2H257l-.94.08c-.49.05-1,.09-1.49.1a1.41,1.41,0,0,1-.46,0,.79.79,0,0,1-.16-.16l-.09-.1a1.57,1.57,0,0,0-.84-.44,9,9,0,0,0,.92-.78l.17-.17a14.94,14.94,0,0,1,1.72-1.35l.67-.43.33-.22a1.28,1.28,0,0,0,.49-.49,1.68,1.68,0,0,0,0-1.25c0-.07,0-.14,0-.19s0-.08,0-.12l.59.22a21.06,21.06,0,0,1,4.1,2.29,10.29,10.29,0,0,1,1.32,1c-.31-.07-.62-.14-1-.19a15.25,15.25,0,0,0-2.44-.2c-.37,0-.74,0-1.1.07l-.48,0c-.39,0-.79,0-1.18.07l-.42,0a.5.5,0,1,0,.05,1l.41,0,1.23-.07.49,0a8.55,8.55,0,0,1,1-.07,16.08,16.08,0,0,1,2.3.19l.23,0A9.75,9.75,0,0,1,259.42,105.67Z"/><polygon class="cls-1" points="108.03 53.38 108.03 53.38 108.03 53.38 108.03 53.38"/></g></g></svg>