<?xml version="1.0" encoding="iso-8859-1"?>
<!-- Generator: Adobe Illustrator 16.0.0, SVG Export Plug-In . SVG Version: 6.00 Build 0)  -->
<!DOCTYPE svg PUBLIC "-//W3C//DTD SVG 1.1//EN" "http://www.w3.org/Graphics/SVG/1.1/DTD/svg11.dtd">
<svg version="1.1" id="Capa_1" xmlns="http://www.w3.org/2000/svg" xmlns:xlink="http://www.w3.org/1999/xlink" x="0px" y="0px"
	 width="475.189px" height="475.188px" viewBox="0 0 475.189 475.188" style="enable-background:new 0 0 475.189 475.188;"
	 xml:space="preserve">
<g>
	<path d="M4.382,223.59c0,115.104,87.44,210.136,199.378,222.252l-1.194-1.568l-8.214-10.796c-2.382-3.127-4.629-6.292-6.752-9.476
		c-10.613-15.912-18.006-32.484-22.194-49.4c-7.956-11.599-15.902-24.843-23.027-39.589c6.321-2.275,12.853-4.36,19.613-6.216
		c0.641-6.895,1.807-13.799,3.5-20.684c-10.786,2.601-21.066,5.795-30.858,9.361c-9.333-23.207-16.132-49.494-17.853-78.346h86.368
		c3.987-4.055,8.138-7.765,12.412-11.188c3.548-2.84,7.19-5.47,10.9-7.937c2.706-1.798,5.451-3.519,8.225-5.164v-56.581
		c31.479-1.214,60.205-8.052,85.612-17.671c3.31,9.161,6.196,18.752,8.559,28.735c5.784-3.653,11.397-7.707,16.781-12.297
		c-2.171-8.224-4.666-16.17-7.43-23.82c16.008-7.268,30.38-15.453,43.031-23.677c2.075-4.38,4.035-9.065,5.91-13.99
		c1.348-3.538,2.677-7.143,3.921-10.987c1.07-3.318,2.075-6.847,3.06-10.404C353.165,28.659,293.859,0,227.983,0
		C104.684,0,4.382,100.301,4.382,223.59z M62.036,104.604c14.325,9.993,31.537,20.311,51.274,29.233
		c-9.19,25.656-15.396,54.554-15.998,86.177H23.7C24.444,176.982,38.549,137.25,62.036,104.604z M177.952,421.601
		c-37.409-9.467-70.743-29.118-96.782-56.036c12.326-7.993,26.804-16.15,43.146-23.342
		C140.917,377.116,161.934,404.044,177.952,421.601z M116.646,324.713c-18.436,8.119-34.674,17.375-48.262,26.345
		c-24.958-31.183-40.889-69.778-44.083-111.938h73.306C99.31,270.829,106.605,299.525,116.646,324.713z M116.437,220.004
		c0.612-28.707,6.33-55.166,14.803-78.805c24.938,9.343,53.225,15.969,84.321,17.088v61.717H116.437z M234.686,139.134V19.469
		c1.798,0.057,3.586,0.163,5.384,0.277c10.012,9.17,48.194,46.512,73.114,103.103C289.786,131.656,263.451,137.929,234.686,139.134z
		 M379.979,87.315c-13.752,9.62-30.132,19.508-48.837,28.066c-17.958-41.214-42.523-72.541-59.966-91.571
		C313.988,33.067,351.721,55.825,379.979,87.315z M215.561,139.153c-28.391-1.1-54.305-7.181-77.245-15.73
		c24.699-56.428,62.682-93.856,73.114-103.457c1.367-0.115,2.754-0.124,4.131-0.21V139.153z M179.272,25.235
		c-17.433,19.249-41.388,50.28-58.924,90.777c-17.758-8.09-33.325-17.385-46.416-26.44
		C101.184,58.293,137.722,35.448,179.272,25.235z" fill="#F7EBDF"/>
	<path d="M310.554,475.188c40.277,0,93.474-19.076,134.765-101.897c72.11-144.652-31.7-297.681-31.7-297.681
		c-1.53,5.804-3.194,11.255-4.935,16.524c-2.591,7.822-5.393,15.09-8.404,21.822c-13.416,29.959-30.811,49.582-49.983,63.897
		c-5.718,4.274-11.59,8.099-17.576,11.561c-21.735,12.556-44.8,20.665-66.421,30.61c-11.045,5.078-21.688,10.691-31.604,17.605
		c-0.717,0.497-1.425,1.004-2.123,1.52c-5.978,4.332-11.676,9.19-17.002,14.765c-7.841,8.214-14.898,17.93-20.856,29.864
		c-3.423,6.875-6.12,13.598-8.262,20.177c-2.247,6.923-3.825,13.684-4.82,20.263c-6.034,40.115,9.649,73.679,27.933,97.69
		c1.912-0.995,3.978-2.095,5.996-3.165c5.977-3.165,12.383-6.646,19.125-10.414c15.156-8.473,31.813-18.351,48.452-29.242
		c13.866-9.084,27.646-18.838,40.431-29.06c2.744-2.19,5.46-4.399,8.108-6.637c5.403-4.561,10.49-9.218,15.338-13.913
		c11.207-10.853,20.818-21.983,27.646-33.162c0,0-7.459,14.851-20.76,36.596c-3.108,5.078-6.522,10.519-10.251,16.256
		c-13.513,20.779-30.974,45.173-51.398,68.391c-7.889,8.971-16.228,17.759-24.949,26.097c-5.929,5.671-12.02,11.14-18.293,16.304
		c1.388,0.898,2.496,1.559,3.29,1.951C257.636,464.564,280.491,475.188,310.554,475.188z" fill="#F7EBDF"/>
</g>
<g>
</g>
<g>
</g>
<g>
</g>
<g>
</g>
<g>
</g>
<g>
</g>
<g>
</g>
<g>
</g>
<g>
</g>
<g>
</g>
<g>
</g>
<g>
</g>
<g>
</g>
<g>
</g>
<g>
</g>
</svg>
