<svg xmlns="http://www.w3.org/2000/svg" width="39.75" height="53" viewBox="0 0 39.75 53">
  <g id="Groupe_21" data-name="Groupe 21" transform="translate(0 0.375)">
    <path id="Tracé_188" data-name="Tracé 188" d="M19.875-46.375a19.183,19.183,0,0,1,9.937,2.691,20.255,20.255,0,0,1,7.246,7.246A19.183,19.183,0,0,1,39.75-26.5a18.648,18.648,0,0,1-.88,6A32.706,32.706,0,0,1,35.4-13.871q-1.76,2.691-7.35,10.766l-6.211,8.7a2.386,2.386,0,0,1-3.934,0L11.7-3.105q-5.59-8.074-7.35-10.766A32.706,32.706,0,0,1,.88-20.5a18.648,18.648,0,0,1-.88-6,19.183,19.183,0,0,1,2.691-9.937,20.255,20.255,0,0,1,7.246-7.246A19.183,19.183,0,0,1,19.875-46.375Zm0,46.168L23.912-6q5.486-7.66,7.143-10.352a28.874,28.874,0,0,0,3.105-5.693,14.14,14.14,0,0,0,.621-4.451,14.387,14.387,0,0,0-2.019-7.453,15.191,15.191,0,0,0-5.435-5.435,14.387,14.387,0,0,0-7.453-2.019,14.387,14.387,0,0,0-7.453,2.019,15.191,15.191,0,0,0-5.435,5.435A14.387,14.387,0,0,0,4.969-26.5a14.14,14.14,0,0,0,.621,4.451A28.874,28.874,0,0,0,8.7-16.355Q10.352-13.664,15.838-6v.1Q18.426-2.277,19.875-.207Zm8.281-28.777a1.612,1.612,0,0,1,1.19.466,1.612,1.612,0,0,1,.466,1.19v1.656a1.612,1.612,0,0,1-.466,1.19,1.612,1.612,0,0,1-1.19.466h-5.8v5.8a1.612,1.612,0,0,1-.466,1.19,1.612,1.612,0,0,1-1.19.466H19.047a1.612,1.612,0,0,1-1.19-.466,1.612,1.612,0,0,1-.466-1.19v-5.8h-5.8a1.612,1.612,0,0,1-1.19-.466,1.612,1.612,0,0,1-.466-1.19v-1.656a1.612,1.612,0,0,1,.466-1.19,1.612,1.612,0,0,1,1.19-.466h5.8v-5.8a1.612,1.612,0,0,1,.466-1.19,1.612,1.612,0,0,1,1.19-.466H20.7a1.612,1.612,0,0,1,1.19.466,1.612,1.612,0,0,1,.466,1.19v5.8Z" transform="translate(0 46)" fill="#bcd35f"/>
  </g>
</svg>