<svg xmlns="http://www.w3.org/2000/svg" width="12.957" height="11.518" viewBox="0 0 12.957 11.518">
  <path id="Tracé_4" data-name="Tracé 4" d="M12.264-20.775a8.11,8.11,0,0,1,.495,1.562,8.008,8.008,0,0,1,.18,1.675,8.212,8.212,0,0,1-.764,3.552,6.728,6.728,0,0,1-2.113,2.608,6.042,6.042,0,0,1-3.147,1.146,4.12,4.12,0,0,1-2.36-.427A4.231,4.231,0,0,1,3-11.963a6.154,6.154,0,0,0-1.236,1.349,3.383,3.383,0,0,0-.382.663.719.719,0,0,1-.393.4.673.673,0,0,1-.551.011.723.723,0,0,1-.393-.393.673.673,0,0,1-.011-.551A6.642,6.642,0,0,1,1.25-12.3a8.458,8.458,0,0,1,2.765-2,10.776,10.776,0,0,1,4.608-.944.35.35,0,0,0,.259-.1.35.35,0,0,0,.1-.259.35.35,0,0,0-.1-.259.35.35,0,0,0-.259-.1,10.733,10.733,0,0,0-6.429,1.888l-.022-.045q-.022-.27-.022-.4a4.166,4.166,0,0,1,.584-2.158,4.4,4.4,0,0,1,1.574-1.574,4.166,4.166,0,0,1,2.158-.584h1.8a3.733,3.733,0,0,0,1.944-.528,4.013,4.013,0,0,0,1.427-1.45.362.362,0,0,1,.326-.18A.312.312,0,0,1,12.264-20.775Z" transform="translate(0.018 21)" fill="#bcd35f"/>
</svg>