<svg xmlns="http://www.w3.org/2000/svg" width="7.275" height="12.5" viewBox="0 0 7.275 12.5">
  <path id="Tracé_186" data-name="Tracé 186" d="M1.221-9.814a.714.714,0,0,0-.146.439.528.528,0,0,0,.146.391L6.982-3.32a.464.464,0,0,0,.391.2.607.607,0,0,0,.439-.2l.342-.342A.528.528,0,0,0,8.3-4.053a.714.714,0,0,0-.146-.439L3.174-9.375l4.98-4.883a.607.607,0,0,0,.2-.439.464.464,0,0,0-.2-.391l-.342-.391a.714.714,0,0,0-.439-.146.528.528,0,0,0-.391.146Z" transform="translate(-1.074 15.625)" fill="#5fbcd3"/>
</svg>