<svg xmlns="http://www.w3.org/2000/svg" width="7.275" height="12.5" viewBox="0 0 7.275 12.5">
  <path id="Tracé_187" data-name="Tracé 187" d="M8.154-8.984v.049A.714.714,0,0,0,8.3-9.375a.714.714,0,0,0-.146-.439L2.393-15.478A.528.528,0,0,0,2-15.625a.714.714,0,0,0-.439.146l-.342.391a.528.528,0,0,0-.146.391.714.714,0,0,0,.146.439L6.2-9.375,1.221-4.492a.607.607,0,0,0-.2.439.464.464,0,0,0,.2.391l.342.342a.607.607,0,0,0,.439.2.464.464,0,0,0,.391-.2Z" transform="translate(-1.025 15.625)" fill="#5fbcd3"/>
</svg>